<?xml version="1.0" encoding="UTF-8"?>
<svg version="1.1" xmlns="http://www.w3.org/2000/svg" width="500" height="500">
<path d="M0 0 C0.69351563 0.41894531 1.38703125 0.83789062 2.1015625 1.26953125 C2.89820313 1.74003906 3.69484375 2.21054688 4.515625 2.6953125 C8.88419878 5.44879467 12.64259301 8.40362418 16.1015625 12.26953125 C16.7203125 12.88828125 17.3390625 13.50703125 17.9765625 14.14453125 C19.30998713 16.66322221 19.35684722 18.4252097 18.88745117 21.21777344 C17.11906438 25.83458693 13.04923331 29.08019164 9.5703125 32.45703125 C8.70523071 33.3183667 7.84014893 34.17970215 6.94885254 35.06713867 C5.11643406 36.88612529 3.27684037 38.69790813 1.43066406 40.50292969 C-1.37421993 43.24584869 -4.1575261 46.00920372 -6.9375 48.77734375 C-8.72533109 50.54681797 -10.51435646 52.31508649 -12.3046875 54.08203125 C-13.54273132 55.30732544 -13.54273132 55.30732544 -14.80578613 56.55737305 C-29.57021051 70.96580336 -29.57021051 70.96580336 -39.02734375 71.296875 C-39.64480469 71.28785156 -40.26226562 71.27882813 -40.8984375 71.26953125 C-41.00220703 71.93855469 -41.10597656 72.60757813 -41.21289062 73.296875 C-42.54530711 81.60357191 -44.18578116 89.82644074 -45.93017578 98.05419922 C-46.40334618 100.29275407 -46.86777411 102.53301928 -47.33203125 104.7734375 C-47.63488783 106.20974703 -47.93825434 107.64594915 -48.2421875 109.08203125 C-48.51224609 110.36722656 -48.78230469 111.65242188 -49.06054688 112.9765625 C-49.75571925 115.70863855 -50.49778292 117.84661243 -51.8984375 120.26953125 C-52.8884375 119.93953125 -53.8784375 119.60953125 -54.8984375 119.26953125 C-62.91166495 99.16051339 -64.48255283 72.640271 -64.5234375 51.20703125 C-64.5339917 49.89065674 -64.5445459 48.57428223 -64.55541992 47.21801758 C-64.35317729 33.36484258 -60.85251416 22.83466337 -51.8984375 12.26953125 C-51.3415625 11.60050781 -50.7846875 10.93148437 -50.2109375 10.2421875 C-38.45948637 -2.66745953 -15.98064178 -7.99032089 0 0 Z " fill="#F18A13" transform="translate(301.8984375,155.73046875)"/>
<path d="M0 0 C4.90713368 -0.87951471 9.12546279 -1.17092058 14 0 C17.60360224 3.61394256 19.80378418 7.55882271 22.05810547 12.10498047 C23.45666852 14.91878203 25.02347198 17.63617288 26.5625 20.375 C27.38062218 21.9136905 28.19551864 23.45413386 29 25 C29.49628906 24.18917969 29.99257813 23.37835938 30.50390625 22.54296875 C43.27710843 1.72289157 43.27710843 1.72289157 45 0 C49.07808844 -0.26614584 53.1598149 -0.27125966 57.24584961 -0.29516602 C59.29414312 -0.31234603 61.34080822 -0.35620989 63.38867188 -0.40039062 C64.67966797 -0.40876953 65.97066406 -0.41714844 67.30078125 -0.42578125 C69.08222534 -0.44765503 69.08222534 -0.44765503 70.8996582 -0.4699707 C74.65640341 0.09950205 75.69462909 1.04413749 78 4 C79.28027344 5.92285156 79.28027344 5.92285156 80.359375 7.890625 C80.75253906 8.59960938 81.14570313 9.30859375 81.55078125 10.0390625 C81.94652344 10.76867187 82.34226562 11.49828125 82.75 12.25 C83.16121094 12.99507812 83.57242188 13.74015625 83.99609375 14.5078125 C85.00349544 16.33519231 86.00258786 18.16714863 87 20 C87.32274902 19.4652002 87.64549805 18.93040039 87.97802734 18.37939453 C89.44071984 15.95945632 90.90780189 13.54220889 92.375 11.125 C92.88289063 10.28324219 93.39078125 9.44148437 93.9140625 8.57421875 C94.40390625 7.76855469 94.89375 6.96289062 95.3984375 6.1328125 C96.07398682 5.01737061 96.07398682 5.01737061 96.76318359 3.87939453 C98 2 98 2 100 0 C103.0390625 -0.1953125 103.0390625 -0.1953125 106.625 -0.125 C108.40777344 -0.09792969 108.40777344 -0.09792969 110.2265625 -0.0703125 C111.14179688 -0.04710937 112.05703125 -0.02390625 113 0 C113.495 1.485 113.495 1.485 114 3 C112.7421875 5.453125 112.7421875 5.453125 110.875 8.25 C110.2253125 9.23226562 109.575625 10.21453125 108.90625 11.2265625 C107.42376236 13.3834605 105.92115671 15.51390141 104.375 17.625 C101.09130067 22.11562193 98.48447149 27.03105701 96 32 C97.25743194 34.41813835 98.56405011 36.69068093 100 39 C100.40919678 39.67264893 100.81839355 40.34529785 101.23999023 41.03833008 C104.19597476 45.84776574 107.36319514 50.45643988 110.78515625 54.94921875 C112 57 112 57 112 61 C109.57038821 62.2148059 107.83615884 62.23607267 105.125 62.3125 C103.82949219 62.36857422 103.82949219 62.36857422 102.5078125 62.42578125 C99.08675504 61.84494751 98.15906829 60.7010031 96 58 C94.47548803 55.63949931 93.10153758 53.2128018 91.75 50.75 C91.38648438 50.1003125 91.02296875 49.450625 90.6484375 48.78125 C89.75966541 47.19081574 88.87900064 45.59585552 88 44 C84.44282018 48.29206971 81.57306534 52.81849603 78.68359375 57.57421875 C77 60 77 60 74 62 C71.08203125 62.1953125 71.08203125 62.1953125 67.8125 62.125 C66.72582031 62.10695313 65.63914062 62.08890625 64.51953125 62.0703125 C63.68808594 62.04710937 62.85664063 62.02390625 62 62 C61.67 61.01 61.34 60.02 61 59 C62.43412896 56.34641419 63.91172899 53.88805814 65.5625 51.375 C66.02124512 50.65658936 66.47999023 49.93817871 66.95263672 49.19799805 C69.85447569 44.67364194 72.84872586 40.22175581 76.0390625 35.89453125 C77.32661621 33.35606154 77.28244684 31.8386541 77 29 C75.59513451 26.16502402 75.59513451 26.16502402 73.60546875 23.33203125 C72.89712891 22.27435547 72.18878906 21.21667969 71.45898438 20.12695312 C71.08604248 19.58304932 70.71310059 19.03914551 70.32885742 18.47875977 C69.18952896 16.81546206 68.06920616 15.14055622 66.95117188 13.46289062 C63.1625901 7.56690155 63.1625901 7.56690155 58 3 C57.66355469 3.97259766 57.66355469 3.97259766 57.3203125 4.96484375 C55.53521457 9.06845644 53.22759284 12.76252516 50.875 16.5625 C50.14337646 17.75480225 50.14337646 17.75480225 49.39697266 18.97119141 C45.9040657 24.63100494 42.26805266 30.16291231 38.4609375 35.6171875 C36.27596129 39.18091875 35.87892279 42.41706107 35.68359375 46.546875 C35.62075195 47.81337891 35.62075195 47.81337891 35.55664062 49.10546875 C35.51732422 49.97816406 35.47800781 50.85085938 35.4375 51.75 C35.37272461 53.08224609 35.37272461 53.08224609 35.30664062 54.44140625 C35.20086385 56.62745963 35.09877454 58.81362089 35 61 C33.02090602 61.02686553 31.04171029 61.04633375 29.0625 61.0625 C27.96035156 61.07410156 26.85820312 61.08570313 25.72265625 61.09765625 C23 61 23 61 22 60 C21.9640349 58.5629022 21.98717876 57.12424693 22.03515625 55.6875 C22.18956885 42.38901144 20.10617807 33.99216809 12.48632812 23.15332031 C9.78864786 19.2450516 7.35150171 15.17539119 4.875 11.125 C4.3898291 10.35704102 3.9046582 9.58908203 3.40478516 8.79785156 C2.73648682 7.72615723 2.73648682 7.72615723 2.0546875 6.6328125 C1.65749512 6.00262207 1.26030273 5.37243164 0.85107422 4.72314453 C0 3 0 3 0 0 Z " fill="#EF7B19" transform="translate(289,227)"/>
<path d="M0 0 C3.05932364 1.67237079 5.89299805 3.63076051 8.75 5.625 C9.9421814 6.44206421 9.9421814 6.44206421 11.15844727 7.27563477 C12.731795 8.35573582 14.30228306 9.44001644 15.86962891 10.52880859 C17.66222844 11.76674176 19.47538134 12.97483678 21.29296875 14.17578125 C22.16566406 14.75714844 23.03835938 15.33851563 23.9375 15.9375 C24.66839844 16.42089844 25.39929688 16.90429688 26.15234375 17.40234375 C29.23130512 20.06470146 30.73734884 22.75285367 31.57421875 26.7265625 C31.9273725 35.76242741 28.66832439 40.2462518 23 47 C19.01106151 51.25944457 14.82174508 55.29497974 10.6081543 59.33032227 C9.20287577 60.68150599 7.80637405 62.04179936 6.41015625 63.40234375 C5.58652588 64.19116943 4.76289551 64.97999512 3.91430664 65.79272461 C2.01776655 67.97951443 1.22561478 69.13815455 1 72 C2.27753159 74.12350314 2.27753159 74.12350314 4.375 76.1875 C5.19484375 77.05503906 6.0146875 77.92257812 6.859375 78.81640625 C11.45838012 83.50879996 16.10996632 88.15157221 20.79443359 92.75854492 C26.84828611 98.73639307 32.55486471 104.90656616 37.625 111.75 C39.65139147 114.41678607 41.27477768 116.21631435 43.9375 118.3125 C44.618125 118.869375 45.29875 119.42625 46 120 C46 121.32 46 122.64 46 124 C42.03546635 125.32151122 39.64669756 124.76266295 35.88354492 123.06274414 C32.53325724 121.17242628 29.9165657 118.55629909 27.1875 115.875 C23.41772268 112.00009203 23.41772268 112.00009203 19 109 C19 108.34 19 107.68 19 107 C18.401875 106.71125 17.80375 106.4225 17.1875 106.125 C15 105 15 105 12 103 C12 102.34 12 101.68 12 101 C11.42330566 100.74404053 10.84661133 100.48808105 10.25244141 100.22436523 C7.77349858 98.87688005 6.01086414 97.34592763 3.9609375 95.41015625 C3.21585938 94.70826172 2.47078125 94.00636719 1.703125 93.28320312 C0.55070313 92.18395508 0.55070313 92.18395508 -0.625 91.0625 C-1.40101563 90.33353516 -2.17703125 89.60457031 -2.9765625 88.85351562 C-9.16708226 82.99079249 -12.56973293 78.45373206 -13.26742554 69.61032104 C-13.27504913 68.43293365 -13.28267273 67.25554626 -13.29052734 66.04248047 C-13.29724457 65.38624695 -13.30396179 64.73001343 -13.31088257 64.05389404 C-13.32971313 61.908246 -13.333778 59.76291275 -13.3359375 57.6171875 C-13.34237212 56.11459224 -13.34910097 54.61199821 -13.35610962 53.10940552 C-13.3680422 49.97085666 -13.37179423 46.83241758 -13.37060547 43.69384766 C-13.37040164 39.67769824 -13.39778623 35.6622514 -13.43214989 31.64626884 C-13.4544038 28.5475441 -13.45844361 25.44898949 -13.45738602 22.35019302 C-13.45974108 20.86944261 -13.46855936 19.38868745 -13.48405075 17.9080162 C-13.50369706 15.83775292 -13.49788198 13.76901955 -13.48583984 11.69873047 C-13.48868988 10.52293427 -13.49153992 9.34713806 -13.49447632 8.13571167 C-12.8955823 4.33783726 -11.70505066 2.68836533 -9 0 C-5.29071106 -1.23642965 -3.78290105 -1.02930098 0 0 Z " fill="#EF7817" transform="translate(251,285)"/>
<path d="M0 0 C3.75840832 3.94188967 6.3265687 8.08028363 8.9375 12.875 C11.91114292 18.24486567 15.10469708 23.24891083 19 28 C24.0903008 20.21394818 29.17221146 12.32027637 32.98046875 3.80859375 C34 2 34 2 37 0 C43.13509061 -0.54777595 43.13509061 -0.54777595 45.875 1.1875 C48.12494882 4.81241754 48.12557395 8.94112252 48.12939453 13.10986328 C48.13254669 14.10084015 48.13569885 15.09181702 48.13894653 16.11282349 C48.1369223 17.17129486 48.13489807 18.22976624 48.1328125 19.3203125 C48.13376923 20.41592499 48.13472595 21.51153748 48.13571167 22.64035034 C48.13639112 24.95180316 48.13455326 27.2632579 48.13037109 29.57470703 C48.12500929 33.11885844 48.13032936 36.66288372 48.13671875 40.20703125 C48.13605813 42.45312528 48.1347773 44.69921923 48.1328125 46.9453125 C48.13483673 48.00783234 48.13686096 49.07035217 48.13894653 50.16506958 C48.13421829 51.6420784 48.13421829 51.6420784 48.12939453 53.14892578 C48.12859894 54.01542755 48.12780334 54.88192932 48.12698364 55.77468872 C48 58 48 58 47 61 C43.74696956 62.62651522 40.60774398 62.11453156 37 62 C34.83115793 59.83115793 35.57599556 55.01965731 35.4375 52 C35.37272461 50.76056641 35.37272461 50.76056641 35.30664062 49.49609375 C35.06648971 44.624461 34.97551135 39.78700477 35.08227539 34.91015625 C35.0780872 32.7757442 35.0780872 32.7757442 34 30 C33.3709375 31.14339844 32.741875 32.28679687 32.09375 33.46484375 C31.23061416 34.95656765 30.36594987 36.44740789 29.5 37.9375 C29.09007812 38.69224609 28.68015625 39.44699219 28.2578125 40.22460938 C25.15531028 45.46595782 25.15531028 45.46595782 22.046875 46.90283203 C19.96875 47.31640625 19.96875 47.31640625 16 47 C11.9572132 43.97368531 9.47063811 39.96595067 6.75 35.75 C4.60172527 32.19990795 4.60172527 32.19990795 2 29 C1.97494385 29.96413818 1.9498877 30.92827637 1.92407227 31.92163086 C1.83014694 35.48687842 1.72989061 39.05192433 1.62768555 42.61694336 C1.58428015 44.16214289 1.54260929 45.70739214 1.50268555 47.25268555 C1.44511801 49.46939096 1.38138576 51.6858448 1.31640625 53.90234375 C1.29133751 54.94454323 1.29133751 54.94454323 1.26576233 56.00779724 C1.11387171 60.88612829 1.11387171 60.88612829 0 62 C-1.99609375 62.16796875 -1.99609375 62.16796875 -4.4375 62.1875 C-5.24058594 62.20167969 -6.04367188 62.21585937 -6.87109375 62.23046875 C-9 62 -9 62 -11 60 C-11.24723816 57.69166565 -11.24723816 57.69166565 -11.24291992 54.77172852 C-11.24599655 53.6804213 -11.24907318 52.58911407 -11.25224304 51.46473694 C-11.24505753 50.28141281 -11.23787201 49.09808868 -11.23046875 47.87890625 C-11.23001053 46.6680687 -11.22955231 45.45723114 -11.2290802 44.20970154 C-11.22605451 41.64491803 -11.21815884 39.08013642 -11.20581055 36.51538086 C-11.18759243 32.5824535 -11.18530056 28.64976195 -11.18554688 24.71679688 C-11.18063035 22.22916462 -11.17480144 19.74153398 -11.16796875 17.25390625 C-11.16685593 16.07260635 -11.1657431 14.89130646 -11.16459656 13.67420959 C-11.15821671 12.57975021 -11.15183685 11.48529083 -11.14526367 10.35766602 C-11.14145187 9.39329117 -11.13764008 8.42891632 -11.13371277 7.43531799 C-11 5 -11 5 -10 2 C-6.23500419 -0.5099972 -4.45706394 -0.61476744 0 0 Z " fill="#ECEBEB" transform="translate(191,227)"/>
<path d="M0 0 C1.37575195 -0.04350586 1.37575195 -0.04350586 2.77929688 -0.08789062 C9.26006557 -0.14760005 14.38502625 0.84866071 19.9375 4.3125 C21.875 6.3125 21.875 6.3125 22.9375 8.3125 C23.30875 8.9725 23.68 9.6325 24.0625 10.3125 C26.47328902 15.82287491 26.69222194 21.46918814 25 27.25 C22.85764494 32.61638938 18.31899962 35.78367142 13.9375 39.3125 C14.33130859 39.87235596 14.72511719 40.43221191 15.13085938 41.0090332 C16.90701317 43.54267981 18.67234003 46.08368341 20.4375 48.625 C21.36755859 49.94661133 21.36755859 49.94661133 22.31640625 51.29492188 C23.19619141 52.56625977 23.19619141 52.56625977 24.09375 53.86328125 C24.63837891 54.64356689 25.18300781 55.42385254 25.74414062 56.2277832 C26.9375 58.3125 26.9375 58.3125 26.9375 61.3125 C24.53236979 62.51506511 22.80896436 62.5828777 20.125 62.6875 C19.27292969 62.73648438 18.42085937 62.78546875 17.54296875 62.8359375 C12.75219666 61.87347354 10.50165291 58.08270876 7.734375 54.3046875 C6.72117187 52.76167969 6.72117187 52.76167969 5.6875 51.1875 C5.00171875 50.15367187 4.3159375 49.11984375 3.609375 48.0546875 C1.9375 45.3125 1.9375 45.3125 0.9375 42.3125 C-1.0425 42.8075 -1.0425 42.8075 -3.0625 43.3125 C-3.03929688 44.43269531 -3.01609375 45.55289063 -2.9921875 46.70703125 C-2.97342763 48.17968084 -2.95522766 49.65233763 -2.9375 51.125 C-2.92074219 51.86298828 -2.90398437 52.60097656 -2.88671875 53.36132812 C-2.85175372 57.22496426 -2.86852445 59.02153668 -5.0625 62.3125 C-7.41015625 62.640625 -7.41015625 62.640625 -10.125 62.5625 C-11.02347656 62.54703125 -11.92195313 62.5315625 -12.84765625 62.515625 C-15.0625 62.3125 -15.0625 62.3125 -16.0625 61.3125 C-16.17705273 59.58506376 -16.22212216 57.85296921 -16.23950195 56.12182617 C-16.25233719 55.01365036 -16.26517242 53.90547455 -16.27839661 52.76371765 C-16.28578354 51.55649551 -16.29317047 50.34927338 -16.30078125 49.10546875 C-16.308853 47.87339188 -16.31692474 46.641315 -16.32524109 45.37190247 C-16.33910235 42.75828467 -16.34981531 40.14464862 -16.35766602 37.53100586 C-16.36652835 34.84880877 -16.38740168 32.16712938 -16.41918945 29.48510742 C-16.46170262 25.62923422 -16.47801422 21.77404675 -16.48828125 17.91796875 C-16.50578934 16.71681931 -16.52329742 15.51566986 -16.54133606 14.27812195 C-16.53694771 12.60167351 -16.53694771 12.60167351 -16.5324707 10.89135742 C-16.53833694 9.90842209 -16.54420319 8.92548676 -16.55024719 7.9127655 C-15.92586923 4.58409751 -14.64709759 3.42620585 -12.0625 1.3125 C-8.38249529 -0.52750236 -4.05109876 0.04147883 0 0 Z M-4.0625 14.3125 C-4.59077904 18.87002596 -4.4333706 23.92571408 -3.0625 28.3125 C0.00179776 29.84464888 2.5540642 29.54188548 5.9375 29.3125 C9.4761994 27.66110695 10.74820153 26.59644771 12.9375 23.3125 C13.28995721 19.99940226 13.28150223 17.98239907 11.75 15 C8.59000124 12.05793219 5.4367455 12.33788536 1.25 12.125 C-2.14214439 11.94813387 -2.14214439 11.94813387 -4.0625 14.3125 Z " fill="#ECEBEB" transform="translate(98.0625,226.6875)"/>
<path d="M0 0 C0.76741516 0.00470306 1.53483032 0.00940613 2.32550049 0.01425171 C4.76480549 0.03552382 7.2019045 0.09212601 9.640625 0.1484375 C11.29555251 0.16495116 12.95050315 0.17929754 14.60546875 0.19140625 C26.69472078 0.32753328 26.69472078 0.32753328 27.890625 1.5234375 C27.98913671 3.35459633 28.02035129 5.18963683 28.015625 7.0234375 C28.01949219 8.52390625 28.01949219 8.52390625 28.0234375 10.0546875 C27.890625 12.5234375 27.890625 12.5234375 26.890625 13.5234375 C24.89097518 13.61101753 22.8882639 13.63040326 20.88671875 13.62109375 C19.67177734 13.61787109 18.45683594 13.61464844 17.20507812 13.61132812 C15.92568359 13.60294922 14.64628906 13.59457031 13.328125 13.5859375 C12.04486328 13.58142578 10.76160156 13.57691406 9.43945312 13.57226562 C6.25646478 13.56043295 3.07356738 13.54394818 -0.109375 13.5234375 C-0.109375 17.1534375 -0.109375 20.7834375 -0.109375 24.5234375 C1.45554688 24.51183594 3.02046875 24.50023437 4.6328125 24.48828125 C6.67708214 24.47890387 8.72135307 24.46980361 10.765625 24.4609375 C12.31443359 24.44836914 12.31443359 24.44836914 13.89453125 24.43554688 C14.88066406 24.43232422 15.86679688 24.42910156 16.8828125 24.42578125 C18.24962158 24.41792603 18.24962158 24.41792603 19.64404297 24.40991211 C21.890625 24.5234375 21.890625 24.5234375 23.890625 25.5234375 C23.91749779 27.33585802 23.93696215 29.14838983 23.953125 30.9609375 C23.96472656 31.97027344 23.97632813 32.97960937 23.98828125 34.01953125 C23.890625 36.5234375 23.890625 36.5234375 22.890625 37.5234375 C21.18290142 37.61057581 19.47163851 37.63043757 17.76171875 37.62109375 C16.21000977 37.61625977 16.21000977 37.61625977 14.62695312 37.61132812 C13.53833984 37.60294922 12.44972656 37.59457031 11.328125 37.5859375 C9.6894043 37.57916992 9.6894043 37.57916992 8.01757812 37.57226562 C5.30857068 37.5604359 2.5995912 37.54249981 -0.109375 37.5234375 C-0.109375 41.4834375 -0.109375 45.4434375 -0.109375 49.5234375 C1.82808594 49.51183594 3.76554687 49.50023437 5.76171875 49.48828125 C8.28385321 49.47890529 10.8059887 49.46980488 13.328125 49.4609375 C14.60751953 49.45255859 15.88691406 49.44417969 17.20507812 49.43554688 C18.42001953 49.43232422 19.63496094 49.42910156 20.88671875 49.42578125 C22.01263428 49.42054443 23.1385498 49.41530762 24.29858398 49.40991211 C26.890625 49.5234375 26.890625 49.5234375 27.890625 50.5234375 C27.98913671 52.35459633 28.02035129 54.18963683 28.015625 56.0234375 C28.01949219 57.52390625 28.01949219 57.52390625 28.0234375 59.0546875 C27.890625 61.5234375 27.890625 61.5234375 26.890625 62.5234375 C24.10237152 62.62449572 21.33941627 62.6631359 18.55078125 62.65625 C17.71348984 62.65720673 16.87619843 62.65816345 16.01353455 62.65914917 C14.23892136 62.65983105 12.46430569 62.65797622 10.68969727 62.65380859 C7.9682048 62.6484671 5.24687788 62.65374985 2.52539062 62.66015625 C0.80468713 62.65949534 -0.91601625 62.65821391 -2.63671875 62.65625 C-3.45446274 62.65827423 -4.27220673 62.66029846 -5.11473083 62.66238403 C-10.87946485 62.63839257 -10.87946485 62.63839257 -13.109375 61.5234375 C-13.23614579 53.63990445 -13.32371495 45.75663419 -13.3840332 37.87231445 C-13.40635494 35.19005296 -13.44114294 32.5083833 -13.48657227 29.82641602 C-13.54722025 25.97134495 -13.57558627 22.1171798 -13.59765625 18.26171875 C-13.62346268 17.06259354 -13.6492691 15.86346832 -13.67585754 14.62800598 C-13.67861607 6.44140654 -13.67861607 6.44140654 -11.08569336 2.26000977 C-7.32369552 0.06502243 -4.23526502 -0.13033633 0 0 Z " fill="#E5E3E3" transform="translate(146.109375,226.4765625)"/>
<path d="M0 0 C0.99 0 1.98 0 3 0 C3 15.84 3 31.68 3 48 C11.25 48 19.5 48 28 48 C28 52.29 28 56.58 28 61 C22.90968245 61.04936158 17.81950357 61.08570105 12.72900391 61.10986328 C10.99655735 61.11993376 9.26412784 61.13359089 7.53173828 61.15087891 C5.04455361 61.17508162 2.55759325 61.18647239 0.0703125 61.1953125 C-0.70682098 61.20563507 -1.48395447 61.21595764 -2.28463745 61.22659302 C-4.19125493 61.22699271 -6.09731036 61.1223214 -8 61 C-10.57559128 58.42440872 -10.25278679 57.4268332 -10.25878906 53.84765625 C-10.26509338 52.77314209 -10.27139771 51.69862793 -10.27789307 50.59155273 C-10.2738446 49.42696533 -10.26979614 48.26237793 -10.265625 47.0625 C-10.26753845 45.87148682 -10.2694519 44.68047363 -10.27142334 43.45336914 C-10.2727863 40.93147572 -10.26908216 38.40957531 -10.26074219 35.88769531 C-10.25004453 32.01611651 -10.26063406 28.14500178 -10.2734375 24.2734375 C-10.27211593 21.82812397 -10.26955358 19.38281073 -10.265625 16.9375 C-10.26967346 15.7729126 -10.27372192 14.6083252 -10.27789307 13.40844727 C-10.27158875 12.33393311 -10.26528442 11.25941895 -10.25878906 10.15234375 C-10.25719788 9.20351318 -10.25560669 8.25468262 -10.25396729 7.27709961 C-10 5 -10 5 -8 3 C-5.67451993 2.30643577 -3.34119555 1.63850788 -1 1 C-0.67 0.67 -0.34 0.34 0 0 Z " fill="#DFDEDE" transform="translate(271,228)"/>
<path d="M0 0 C2.69112228 0.17755858 3.8109468 0.81891134 5.76171875 2.6875 C6.39722656 3.450625 7.03273437 4.21375 7.6875 5 C12.77676708 10.87679094 18.25192316 16.31072723 23.7956543 21.7578125 C29.84680929 27.73853224 35.5547079 33.90635451 40.625 40.75 C42.65139147 43.41678607 44.27477768 45.21631435 46.9375 47.3125 C47.618125 47.869375 48.29875 48.42625 49 49 C49 50.32 49 51.64 49 53 C45.03546635 54.32151122 42.64669756 53.76266295 38.88354492 52.06274414 C35.53325724 50.17242628 32.9165657 47.55629909 30.1875 44.875 C26.41772268 41.00009203 26.41772268 41.00009203 22 38 C22 37.34 22 36.68 22 36 C21.1028125 35.566875 21.1028125 35.566875 20.1875 35.125 C18 34 18 34 15 32 C15 31.34 15 30.68 15 30 C14.1349585 29.61606079 14.1349585 29.61606079 13.25244141 29.22436523 C10.77349858 27.87688005 9.01086414 26.34592763 6.9609375 24.41015625 C6.21585938 23.70826172 5.47078125 23.00636719 4.703125 22.28320312 C3.93484375 21.55037109 3.1665625 20.81753906 2.375 20.0625 C1.21097656 18.96905273 1.21097656 18.96905273 0.0234375 17.85351562 C-5.00138833 13.0947613 -8.05355879 10.09830909 -9 3 C-7.88625 2.87625 -6.7725 2.7525 -5.625 2.625 C-1.96896323 2.3534187 -1.96896323 2.3534187 0 0 Z " fill="#2B2A31" transform="translate(248,356)"/>
<path d="M0 0 C1.93719378 -0.05406122 3.87481921 -0.09282025 5.8125 -0.125 C6.89144531 -0.14820313 7.97039062 -0.17140625 9.08203125 -0.1953125 C12 0 12 0 15 2 C15.25660094 5.07921132 15.39431504 7.21136993 14 10 C14.99 10 15.98 10 17 10 C18.5703125 11.6796875 18.5703125 11.6796875 20.125 13.875 C20.90230469 14.95394531 20.90230469 14.95394531 21.6953125 16.0546875 C24.04372797 19.55621715 24.09135698 21.79757915 24 26 C24.66 26 25.32 26 26 26 C26 26.66 26 27.32 26 28 C27.32 28 28.64 28 30 28 C30 28.66 30 29.32 30 30 C30.66 30 31.32 30 32 30 C32 31.32 32 32.64 32 34 C32.66 34 33.32 34 34 34 C33.67 35.32 33.34 36.64 33 38 C32.01 37.67 31.02 37.34 30 37 C30 37.99 30 38.98 30 40 C26.535 40.495 26.535 40.495 23 41 C22.896875 41.639375 22.79375 42.27875 22.6875 42.9375 C22.460625 43.618125 22.23375 44.29875 22 45 C20.515 45.495 20.515 45.495 19 46 C19 47.98 19 49.96 19 52 C17.515 52.495 17.515 52.495 16 53 C15.6278958 54.32303717 15.29369827 55.65737935 15 57 C12.59454362 58.20272819 11.05003047 58.10071472 8.375 58.0625 C7.14910156 58.04896484 7.14910156 58.04896484 5.8984375 58.03515625 C5.27195312 58.02355469 4.64546875 58.01195312 4 58 C4.4510133 53.03885369 5.56641842 51.43358158 9 48 C9.67258667 45.66836622 10.33847444 43.3347961 11 41 C12.24214877 38.92580872 13.56691427 36.95591711 14.9765625 34.9921875 C16.28761413 32.44014043 16.23942672 30.85094656 16 28 C14.98401486 25.83362399 14.98401486 25.83362399 13.48046875 23.8203125 C12.95259766 23.05589844 12.42472656 22.29148438 11.88085938 21.50390625 C11.32205078 20.71886719 10.76324219 19.93382812 10.1875 19.125 C5.80219354 12.89569542 2.41917057 7.25751172 0 0 Z " fill="#F28117" transform="translate(350,228)"/>
<path d="M0 0 C4.90713368 -0.87951471 9.12546279 -1.17092058 14 0 C17.60360224 3.61394256 19.80378418 7.55882271 22.05810547 12.10498047 C23.45666852 14.91878203 25.02347198 17.63617288 26.5625 20.375 C27.38062218 21.9136905 28.19551864 23.45413386 29 25 C29.49628906 24.18917969 29.99257813 23.37835938 30.50390625 22.54296875 C34.93616063 15.31847821 39.42443605 8.13502004 44 1 C44.84119973 3.39957614 45.11193544 4.64922558 44.328125 7.10546875 C43.97234375 7.79253906 43.6165625 8.47960937 43.25 9.1875 C42.90453125 9.88230469 42.5590625 10.57710937 42.203125 11.29296875 C41 13 41 13 38 14 C36.8447856 16.71138905 36.8447856 16.71138905 36 20 C35.62538433 21.29177818 35.25039047 22.58344676 34.875 23.875 C34.441875 25.421875 34.441875 25.421875 34 27 C30.7 27.66 27.4 28.32 24 29 C23.67 29.99 23.34 30.98 23 32 C22.34 32 21.68 32 21 32 C20.67 33.32 20.34 34.64 20 36 C17.77286862 32.41038825 15.55865931 28.81310242 13.35351562 25.20996094 C12.38514673 23.62885069 11.41487887 22.04890286 10.44335938 20.46972656 C8.78864097 17.77565656 7.14355483 15.07589218 5.5 12.375 C4.95956055 11.49811523 4.41912109 10.62123047 3.86230469 9.71777344 C3.11062012 8.47688965 3.11062012 8.47688965 2.34375 7.2109375 C1.66602539 6.10177979 1.66602539 6.10177979 0.97460938 4.97021484 C0 3 0 3 0 0 Z " fill="#EE891B" transform="translate(289,227)"/>
<path d="M0 0 C1.32 0.33 2.64 0.66 4 1 C2.68 3.31 1.36 5.62 0 8 C1.34927127 10.29467904 2.70305878 12.58634811 4.0625 14.875 C4.66952759 15.89750854 4.66952759 15.89750854 5.28881836 16.94067383 C8.20845227 21.8074953 11.34388538 26.43108761 14.78515625 30.94921875 C16 33 16 33 16 37 C13.57038821 38.2148059 11.83615884 38.23607267 9.125 38.3125 C7.82949219 38.36857422 7.82949219 38.36857422 6.5078125 38.42578125 C3.08675504 37.84494751 2.15906829 36.7010031 0 34 C-1.52451197 31.63949931 -2.89846242 29.2128018 -4.25 26.75 C-4.61351562 26.1003125 -4.97703125 25.450625 -5.3515625 24.78125 C-6.24033459 23.19081574 -7.12099936 21.59585552 -8 20 C-11.55717982 24.29206971 -14.42693466 28.81849603 -17.31640625 33.57421875 C-19 36 -19 36 -22 38 C-24.91796875 38.1953125 -24.91796875 38.1953125 -28.1875 38.125 C-29.27417969 38.10695313 -30.36085938 38.08890625 -31.48046875 38.0703125 C-32.31191406 38.04710937 -33.14335937 38.02390625 -34 38 C-34.495 36.515 -34.495 36.515 -35 35 C-33.60050651 32.49026115 -32.17371593 30.17830602 -30.5625 27.8125 C-30.12873047 27.15830078 -29.69496094 26.50410156 -29.24804688 25.83007812 C-28.17454017 24.21391967 -27.0884403 22.60613901 -26 21 C-25.41796875 22.859375 -25.41796875 22.859375 -25 25 C-26.3125 27.25 -26.3125 27.25 -28 29 C-28.66 29 -29.32 29 -30 29 C-30.33 30.98 -30.66 32.96 -31 35 C-25.555 34.505 -25.555 34.505 -20 34 C-20 32.35 -20 30.7 -20 29 C-18.68 29 -17.36 29 -16 29 C-16.33 26.36 -16.66 23.72 -17 21 C-15.68 21.33 -14.36 21.66 -13 22 C-12.67 20.68 -12.34 19.36 -12 18 C-8.535 17.505 -8.535 17.505 -5 17 C-5 16.01 -5 15.02 -5 14 C-4.01 14 -3.02 14 -2 14 C-1.67 13.01 -1.34 12.02 -1 11 C-1.66 11 -2.32 11 -3 11 C-3 9.35 -3 7.7 -3 6 C-2.34 6 -1.68 6 -1 6 C-0.67 4.02 -0.34 2.04 0 0 Z " fill="#EE6C1E" transform="translate(385,251)"/>
<path d="M0 0 C2.97 0.33 5.94 0.66 9 1 C9 1.33 9 1.66 9 2 C7.02 2 5.04 2 3 2 C2.89623047 2.66902344 2.79246094 3.33804688 2.68554688 4.02734375 C1.35313039 12.33404066 -0.28734366 20.55690949 -2.03173828 28.78466797 C-2.50490868 31.02322282 -2.96933661 33.26348803 -3.43359375 35.50390625 C-3.73645033 36.94021578 -4.03981684 38.3764179 -4.34375 39.8125 C-4.61380859 41.09769531 -4.88386719 42.38289063 -5.16210938 43.70703125 C-5.85728175 46.4391073 -6.59934542 48.57708118 -8 51 C-8.99 50.67 -9.98 50.34 -11 50 C-14.17508294 42.62215027 -14.84128572 33.5547929 -16.1875 25.6875 C-16.36659912 24.64972412 -16.54569824 23.61194824 -16.73022461 22.54272461 C-17.59713461 17.29007079 -18.21775434 12.3237182 -18 7 C-14.69956787 11.9506482 -13.74338394 16.05942526 -13.34375 21.9140625 C-13.09773501 24.29975905 -13.09773501 24.29975905 -11 27 C-11 28.32 -11 29.64 -11 31 C-10.34 30.67 -9.68 30.34 -9 30 C-8.34786708 27.97536745 -8.34786708 27.97536745 -8 26 C-7.01 26 -6.02 26 -5 26 C-4.21605766 19.51355413 -4.21605766 19.51355413 -4.1875 13 C-3.89384744 8.30155903 -1.89035191 4.27016993 0 0 Z " fill="#A4552A" transform="translate(258,225)"/>
<path d="M0 0 C1.65 0 3.3 0 5 0 C3.36887082 4.46787558 1.07440485 7.95860245 -1.66015625 11.81640625 C-3.7796376 15.27060471 -4.12723434 18.54724037 -4.31640625 22.546875 C-4.35830078 23.39121094 -4.40019531 24.23554688 -4.44335938 25.10546875 C-4.48267578 25.97816406 -4.52199219 26.85085938 -4.5625 27.75 C-4.60568359 28.63816406 -4.64886719 29.52632813 -4.69335938 30.44140625 C-4.79913615 32.62745963 -4.90122546 34.81362089 -5 37 C-6.97909398 37.02686553 -8.95828971 37.04633375 -10.9375 37.0625 C-12.03964844 37.07410156 -13.14179688 37.08570313 -14.27734375 37.09765625 C-17 37 -17 37 -18 36 C-18.15764405 34.22130274 -18.25100677 32.43681524 -18.31640625 30.65234375 C-18.35830078 29.57275391 -18.40019531 28.49316406 -18.44335938 27.38085938 C-18.48267578 26.24455078 -18.52199219 25.10824219 -18.5625 23.9375 C-18.60568359 22.79732422 -18.64886719 21.65714844 -18.69335938 20.48242188 C-18.79982839 17.65507805 -18.90184207 14.82764262 -19 12 C-18.34 12 -17.68 12 -17 12 C-17 12.99 -17 13.98 -17 15 C-16.34 15 -15.68 15 -15 15 C-14.01 16.485 -14.01 16.485 -13 18 C-10.94996045 19.19232613 -10.94996045 19.19232613 -9 20 C-6.73118159 16.91440696 -5.94548054 15.57790624 -6.3125 11.6875 C-6.539375 10.800625 -6.76625 9.91375 -7 9 C-6.34 9 -5.68 9 -5 9 C-5 9.66 -5 10.32 -5 11 C-4.34 11 -3.68 11 -3 11 C-3 9.35 -3 7.7 -3 6 C-1.68 5.67 -0.36 5.34 1 5 C0.67 3.35 0.34 1.7 0 0 Z " fill="#EB661F" transform="translate(329,251)"/>
<path d="M0 0 C0.66 0.33 1.32 0.66 2 1 C1.34 1.66 0.68 2.32 0 3 C0.39380859 3.55985596 0.78761719 4.11971191 1.19335938 4.6965332 C2.96951317 7.23017981 4.73484003 9.77118341 6.5 12.3125 C7.12003906 13.19357422 7.74007812 14.07464844 8.37890625 14.98242188 C8.96542969 15.82998047 9.55195312 16.67753906 10.15625 17.55078125 C10.70087891 18.33106689 11.24550781 19.11135254 11.80664062 19.9152832 C13 22 13 22 13 25 C9.26897687 26.86551156 5.06352296 26.54651812 1 26 C-3.9130647 22.61544431 -6.3297122 17.21558341 -9 12 C-8.21625 11.896875 -7.4325 11.79375 -6.625 11.6875 C-3.66954819 11.22404978 -3.66954819 11.22404978 -2 8 C-1.92094936 5.66800612 -1.91201231 3.33167378 -2 1 C-1.34 0.67 -0.68 0.34 0 0 Z " fill="#DCDBDA" transform="translate(112,263)"/>
<path d="M0 0 C2.7734375 1.62890625 2.7734375 1.62890625 5.375 3.5625 C6.68597656 4.52349609 6.68597656 4.52349609 8.0234375 5.50390625 C8.67570312 5.99761719 9.32796875 6.49132812 10 7 C7.62392051 7.83583327 6.45550373 8.1842383 4.078125 7.22265625 C2.38541667 6.1484375 0.69270833 5.07421875 -1 4 C-1 3.34 -1 2.68 -1 2 C-6.40787385 3.09786425 -6.40787385 3.09786425 -10 7 C-10.29125793 9.85174872 -10.29125793 9.85174872 -10.22705078 13.1237793 C-10.22689972 14.38486008 -10.22674866 15.64594086 -10.22659302 16.94523621 C-10.21637976 18.32156532 -10.20594777 19.69789283 -10.1953125 21.07421875 C-10.19158172 22.48240458 -10.18873506 23.890593 -10.18673706 25.29878235 C-10.17910564 29.0027281 -10.15946148 32.70651668 -10.1373291 36.41040039 C-10.11686003 40.19089634 -10.10773308 43.97141772 -10.09765625 47.75195312 C-10.07621504 55.16804036 -10.04208513 62.58399814 -10 70 C-7.69 70 -5.38 70 -3 70 C-3.66 71.32 -4.32 72.64 -5 74 C-7.33294775 74.04241723 -9.66702567 74.04092937 -12 74 C-13.84012786 72.15987214 -13.15660553 69.19069199 -13.17700195 66.72363281 C-13.18357315 66.06827545 -13.19014435 65.41291809 -13.19691467 64.73770142 C-13.21669359 62.55950822 -13.22832207 60.3813842 -13.23828125 58.203125 C-13.24235678 57.46006859 -13.2464323 56.71701218 -13.25063133 55.9514389 C-13.2715145 52.01645686 -13.28580481 48.0815099 -13.29516602 44.14648438 C-13.30621823 40.08312237 -13.34059723 36.02030988 -13.38033772 31.95714188 C-13.40650209 28.83269237 -13.41485779 25.70837358 -13.41844749 22.58382416 C-13.42331622 21.0863144 -13.43493848 19.58881059 -13.45348549 18.09140778 C-13.47786861 15.99181385 -13.47691424 13.89363787 -13.4699707 11.79394531 C-13.47583694 10.60005188 -13.48170319 9.40615845 -13.48774719 8.17608643 C-12.8997312 4.3470749 -11.72967572 2.70406481 -9 0 C-5.40342997 -1.19885668 -3.65853341 -0.91236379 0 0 Z " fill="#A96027" transform="translate(251,285)"/>
<path d="M0 0 C0.84119973 2.39957614 1.11193544 3.64922558 0.328125 6.10546875 C-0.02765625 6.79253906 -0.3834375 7.47960937 -0.75 8.1875 C-1.09546875 8.88230469 -1.4409375 9.57710937 -1.796875 10.29296875 C-3 12 -3 12 -6 13 C-7.1552144 15.71138905 -7.1552144 15.71138905 -8 19 C-8.37461567 20.29177818 -8.74960953 21.58344676 -9.125 22.875 C-9.558125 24.421875 -9.558125 24.421875 -10 26 C-13.3 26.66 -16.6 27.32 -20 28 C-20.33 28.99 -20.66 29.98 -21 31 C-21.66 31 -22.32 31 -23 31 C-23.33 32.32 -23.66 33.64 -24 35 C-25.31914392 32.92062051 -26.63038213 30.83691981 -27.9375 28.75 C-28.31068359 28.16347656 -28.68386719 27.57695312 -29.06835938 26.97265625 C-30.8965661 24.04093735 -32.46275382 21.44519771 -33 18 C-31.0625 18.75 -31.0625 18.75 -29 20 C-28.25 22.125 -28.25 22.125 -28 24 C-27.01 24 -26.02 24 -25 24 C-24.67 23.01 -24.34 22.02 -24 21 C-23.34 21 -22.68 21 -22 21 C-22 19.68 -22 18.36 -22 17 C-22.66 16.67 -23.32 16.34 -24 16 C-24.40729228 13.67843403 -24.74438677 11.3431213 -25 9 C-21.76612108 11.95267206 -19.77754751 14.87922748 -17.75 18.75 C-17.22921875 19.73484375 -16.7084375 20.7196875 -16.171875 21.734375 C-15.78515625 22.48203125 -15.3984375 23.2296875 -15 24 C-14.50371094 23.18917969 -14.00742187 22.37835938 -13.49609375 21.54296875 C-9.06383937 14.31847821 -4.57556395 7.13502004 0 0 Z " fill="#EE821C" transform="translate(333,228)"/>
<path d="M0 0 C3.96 0 7.92 0 12 0 C12 0.99 12 1.98 12 3 C11.34 3 10.68 3 10 3 C9.67 4.32 9.34 5.64 9 7 C8.01 7 7.02 7 6 7 C5.67 9.31 5.34 11.62 5 14 C4.34 14 3.68 14 3 14 C3 15.32 3 16.64 3 18 C2.34 18 1.68 18 1 18 C0.67 19.65 0.34 21.3 0 23 C-0.93423645 19.98968256 -1.04449911 19.13349732 0 16 C-3.53600465 17.91135386 -5.78972846 19.62642766 -8 23 C-8 22.34 -8 21.68 -8 21 C-8.66 21 -9.32 21 -10 21 C-8.49108911 15.46732673 -8.49108911 15.46732673 -6.0625 13.15625 C-3.655092 10.63941436 -2.84555836 8.53667508 -1.75 5.25 C-0.88375 2.65125 -0.88375 2.65125 0 0 Z " fill="#EC871D" transform="translate(334,228)"/>
<path d="M0 0 C7.22831059 3.25273977 14.53353382 7.61491987 18 15 C17.81807488 20.89772843 16.28372762 23.44600018 12.08984375 27.49609375 C11.60294571 27.97450211 11.11604767 28.45291046 10.61439514 28.94581604 C9.06903084 30.45782147 7.50408378 31.94752296 5.9375 33.4375 C4.88079136 34.46408637 3.82543709 35.49206881 2.77148438 36.52148438 C0.19645789 39.03066265 -2.39655993 41.52027647 -5 44 C-6.04449911 40.86650268 -5.93423645 40.01031744 -5 37 C-4.34 37 -3.68 37 -3 37 C-3 36.34 -3 35.68 -3 35 C-1.35 35 0.3 35 2 35 C2 33.68 2 32.36 2 31 C2.66 31 3.32 31 4 31 C4.33 29.68 4.66 28.36 5 27 C5 27.66 5 28.32 5 29 C5.66 29 6.32 29 7 29 C7.28875 28.21625 7.5775 27.4325 7.875 26.625 C9 24 9 24 11 22 C11.24339551 19.10116917 11.24339551 19.10116917 11.125 15.875 C11.10695313 14.77929688 11.08890625 13.68359375 11.0703125 12.5546875 C11.04710937 11.71164063 11.02390625 10.86859375 11 10 C10.37351562 9.78085938 9.74703125 9.56171875 9.1015625 9.3359375 C2.34305317 6.7135506 2.34305317 6.7135506 0.4375 2.75 C0.293125 1.8425 0.14875 0.935 0 0 Z " fill="#B56928" transform="translate(303,157)"/>
<path d="M0 0 C0.33 0.66 0.66 1.32 1 2 C1.66 2 2.32 2 3 2 C3 2.99 3 3.98 3 5 C3.66 5.33 4.32 5.66 5 6 C5.4140625 8.06640625 5.4140625 8.06640625 5.625 10.5625 C5.69976562 11.38878906 5.77453125 12.21507812 5.8515625 13.06640625 C5.90054687 13.70449219 5.94953125 14.34257812 6 15 C5.01 15.33 4.02 15.66 3 16 C2.6278958 17.32303717 2.29369827 18.65737935 2 20 C-0.40545638 21.20272819 -1.94996953 21.10071472 -4.625 21.0625 C-5.85089844 21.04896484 -5.85089844 21.04896484 -7.1015625 21.03515625 C-7.72804688 21.02355469 -8.35453125 21.01195312 -9 21 C-8.5489867 16.03885369 -7.43358158 14.43358158 -4 11 C-3.25740651 8.68970915 -2.588562 6.354248 -2 4 C-1.37530495 2.64649406 -0.7283669 1.30065517 0 0 Z " fill="#ED6D16" transform="translate(363,265)"/>
<path d="M0 0 C1.65 0.66 3.3 1.32 5 2 C1.12109111 6.65469066 -2.91396506 10.98640026 -7.265625 15.203125 C-9.18645107 17.08604947 -9.18645107 17.08604947 -11 20 C-13.34765625 20.328125 -13.34765625 20.328125 -16.0625 20.25 C-16.96097656 20.23453125 -17.85945312 20.2190625 -18.78515625 20.203125 C-21 20 -21 20 -22 19 C-22.04080783 17.00041636 -22.04254356 14.99954746 -22 13 C-21.67 13.99 -21.34 14.98 -21 16 C-18.49552484 17.21869929 -18.49552484 17.21869929 -16 18 C-15.71125 17.2575 -15.4225 16.515 -15.125 15.75 C-14.75375 14.8425 -14.3825 13.935 -14 13 C-13.71125 12.278125 -13.4225 11.55625 -13.125 10.8125 C-11.7173683 8.54464893 -10.50367806 7.86063933 -8 7 C-7.34 7.33 -6.68 7.66 -6 8 C-5.67 6.02 -5.34 4.04 -5 2 C-3.68 2 -2.36 2 -1 2 C-0.67 1.34 -0.34 0.68 0 0 Z " fill="#EF621C" transform="translate(262,336)"/>
<path d="M0 0 C-0.33 0.99 -0.66 1.98 -1 3 C-1.66 3 -2.32 3 -3 3 C-3.33 4.98 -3.66 6.96 -4 9 C-4.66 9 -5.32 9 -6 9 C-6 9.66 -6 10.32 -6 11 C-6.99 11 -7.98 11 -9 11 C-9 12.65 -9 14.3 -9 16 C-9.66 16 -10.32 16 -11 16 C-11 16.66 -11 17.32 -11 18 C-12.65 17.67 -14.3 17.34 -16 17 C-16 16.34 -16 15.68 -16 15 C-16.99 14.67 -17.98 14.34 -19 14 C-14.68944029 4.38413603 -11.27771842 -1.35332621 0 0 Z " fill="#EF8B1A" transform="translate(400,229)"/>
<path d="M0 0 C-2.63712426 2.69616097 -5.28627234 5.38021193 -7.9375 8.0625 C-8.67291016 8.81466797 -9.40832031 9.56683594 -10.16601562 10.34179688 C-20.97185248 21.24200785 -20.97185248 21.24200785 -26 24 C-28.26147461 23.67993164 -28.26147461 23.67993164 -30 23 C-29.34 22.34 -28.68 21.68 -28 21 C-27.01 21 -26.02 21 -25 21 C-25.0928125 19.63875 -25.0928125 19.63875 -25.1875 18.25 C-24.98313144 14.70761168 -24.47346304 13.47346304 -22 11 C-21.34 11 -20.68 11 -20 11 C-19.67 10.01 -19.34 9.02 -19 8 C-17.29296875 7.05078125 -17.29296875 7.05078125 -15.1875 6.3125 C-14.15689453 5.93544922 -14.15689453 5.93544922 -13.10546875 5.55078125 C-11 5 -11 5 -7 5 C-7 3.35 -7 1.7 -7 0 C-2.25 -1.125 -2.25 -1.125 0 0 Z " fill="#F17C15" transform="translate(297,202)"/>
<path d="M0 0 C1.93719378 -0.05406122 3.87481921 -0.09282025 5.8125 -0.125 C6.89144531 -0.14820313 7.97039062 -0.17140625 9.08203125 -0.1953125 C12 0 12 0 15 2 C15.25660094 5.07921132 15.39431504 7.21136993 14 10 C13.01 10 12.02 10 11 10 C11.33 12.31 11.66 14.62 12 17 C10.25 16.875 10.25 16.875 8 16 C4.17743603 11.13491858 1.9447517 5.8342551 0 0 Z " fill="#EF911D" transform="translate(350,228)"/>
<path d="M0 0 C0.66 0.33 1.32 0.66 2 1 C1 3 1 3 -0.83984375 5.26953125 C-3.66940874 8.84614233 -5.95116924 12.6813231 -8.31640625 16.57421875 C-10 19 -10 19 -13 21 C-15.91796875 21.1953125 -15.91796875 21.1953125 -19.1875 21.125 C-20.27417969 21.10695313 -21.36085938 21.08890625 -22.48046875 21.0703125 C-23.72763672 21.03550781 -23.72763672 21.03550781 -25 21 C-25.33 20.01 -25.66 19.02 -26 18 C-24.60050651 15.49026115 -23.17371593 13.17830602 -21.5625 10.8125 C-21.12873047 10.15830078 -20.69496094 9.50410156 -20.24804688 8.83007812 C-19.17454017 7.21391967 -18.0884403 5.60613901 -17 4 C-16.41796875 5.859375 -16.41796875 5.859375 -16 8 C-17.3125 10.25 -17.3125 10.25 -19 12 C-19.66 12 -20.32 12 -21 12 C-21.33 13.98 -21.66 15.96 -22 18 C-18.37 17.67 -14.74 17.34 -11 17 C-11 15.35 -11 13.7 -11 12 C-9.68 12 -8.36 12 -7 12 C-7.33 9.36 -7.66 6.72 -8 4 C-6.68 4.33 -5.36 4.66 -4 5 C-3.896875 4.360625 -3.79375 3.72125 -3.6875 3.0625 C-3.460625 2.381875 -3.23375 1.70125 -3 1 C-2.01 0.67 -1.02 0.34 0 0 Z " fill="#96572B" transform="translate(376,268)"/>
<path d="M0 0 C1.65 0 3.3 0 5 0 C3.36887082 4.46787558 1.07440485 7.95860245 -1.66015625 11.81640625 C-3.7796376 15.27060471 -4.12723434 18.54724037 -4.31640625 22.546875 C-4.35830078 23.39121094 -4.40019531 24.23554688 -4.44335938 25.10546875 C-4.48267578 25.97816406 -4.52199219 26.85085938 -4.5625 27.75 C-4.60568359 28.63816406 -4.64886719 29.52632813 -4.69335938 30.44140625 C-4.79913615 32.62745963 -4.90122546 34.81362089 -5 37 C-6.97909398 37.02686553 -8.95828971 37.04633375 -10.9375 37.0625 C-12.03964844 37.07410156 -13.14179688 37.08570313 -14.27734375 37.09765625 C-17 37 -17 37 -18 36 C-18.15764405 34.22130274 -18.25100677 32.43681524 -18.31640625 30.65234375 C-18.35830078 29.57275391 -18.40019531 28.49316406 -18.44335938 27.38085938 C-18.48267578 26.24455078 -18.52199219 25.10824219 -18.5625 23.9375 C-18.60568359 22.79732422 -18.64886719 21.65714844 -18.69335938 20.48242188 C-18.79982839 17.65507805 -18.90184207 14.82764262 -19 12 C-18.34 12 -17.68 12 -17 12 C-16.01956036 14.94131891 -15.88378798 16.82501665 -15.90234375 19.88671875 C-15.90717773 21.2934082 -15.90717773 21.2934082 -15.91210938 22.72851562 C-15.92048828 23.70498047 -15.92886719 24.68144531 -15.9375 25.6875 C-15.94201172 26.67556641 -15.94652344 27.66363281 -15.95117188 28.68164062 C-15.9629568 31.12111958 -15.98089217 33.56056741 -16 36 C-12.7 36 -9.4 36 -6 36 C-5.97101184 32.06251542 -5.95320536 28.12505821 -5.9375 24.1875 C-5.92912109 23.06794922 -5.92074219 21.94839844 -5.91210938 20.79492188 C-5.90888672 19.72177734 -5.90566406 18.64863281 -5.90234375 17.54296875 C-5.89710693 16.55321045 -5.89187012 15.56345215 -5.88647461 14.54370117 C-5.88930041 11.87607266 -5.88930041 11.87607266 -7 9 C-6.34 9 -5.68 9 -5 9 C-5 9.66 -5 10.32 -5 11 C-4.34 11 -3.68 11 -3 11 C-3 9.35 -3 7.7 -3 6 C-1.68 5.67 -0.36 5.34 1 5 C0.67 3.35 0.34 1.7 0 0 Z " fill="#A75A28" transform="translate(329,251)"/>
<path d="M0 0 C12.74618834 -0.92017937 12.74618834 -0.92017937 15.8203125 1.3359375 C16.875 3 16.875 3 18 6 C17.34 7.32 16.68 8.64 16 10 C15.34 9.01 14.68 8.02 14 7 C13.34 6.67 12.68 6.34 12 6 C12 5.34 12 4.68 12 4 C11.01 4.33 10.02 4.66 9 5 C7.86200288 8.51744565 7.86072427 9.70984224 9.5 13.125 C9.995 14.07375 10.49 15.0225 11 16 C10.67 16.99 10.34 17.98 10 19 C8.32234574 16.40275919 6.65984649 13.79615063 5 11.1875 C4.28457031 10.08051758 4.28457031 10.08051758 3.5546875 8.95117188 C3.10351562 8.23896484 2.65234375 7.52675781 2.1875 6.79296875 C1.76855469 6.1383667 1.34960938 5.48376465 0.91796875 4.80932617 C0 3 0 3 0 0 Z " fill="#D68529" transform="translate(289,227)"/>
<path d="M0 0 C1.77503906 0.03480469 1.77503906 0.03480469 3.5859375 0.0703125 C5.36871094 0.09738281 5.36871094 0.09738281 7.1875 0.125 C8.10273438 0.14820313 9.01796875 0.17140625 9.9609375 0.1953125 C10.2909375 1.1853125 10.6209375 2.1753125 10.9609375 3.1953125 C9.703125 5.6484375 9.703125 5.6484375 7.8359375 8.4453125 C7.19011719 9.41984375 6.54429687 10.394375 5.87890625 11.3984375 C3.61581994 14.69857966 1.31856463 17.96199529 -1.0390625 21.1953125 C-1.6990625 22.1853125 -2.3590625 23.1753125 -3.0390625 24.1953125 C-3.0390625 22.2153125 -3.0390625 20.2353125 -3.0390625 18.1953125 C-2.3790625 18.1953125 -1.7190625 18.1953125 -1.0390625 18.1953125 C-1.0390625 16.5453125 -1.0390625 14.8953125 -1.0390625 13.1953125 C-0.0490625 13.1953125 0.9409375 13.1953125 1.9609375 13.1953125 C1.9609375 12.5353125 1.9609375 11.8753125 1.9609375 11.1953125 C2.6209375 11.1953125 3.2809375 11.1953125 3.9609375 11.1953125 C4.2909375 9.2153125 4.6209375 7.2353125 4.9609375 5.1953125 C5.6209375 5.1953125 6.2809375 5.1953125 6.9609375 5.1953125 C6.9609375 4.5353125 6.9609375 3.8753125 6.9609375 3.1953125 C1.87742934 2.56033719 1.87742934 2.56033719 -2.765625 4.25 C-6.69351888 7.97646342 -8.84270513 12.29574606 -11.0390625 17.1953125 C-11.6990625 17.1953125 -12.3590625 17.1953125 -13.0390625 17.1953125 C-11.68199446 13.56124087 -10.04655378 10.32519183 -8.0390625 7.0078125 C-7.5234375 6.14800781 -7.0078125 5.28820312 -6.4765625 4.40234375 C-3.76687312 0.24208696 -3.76687312 0.24208696 0 0 Z " fill="#B27A34" transform="translate(392.0390625,226.8046875)"/>
<path d="M0 0 C2.96904506 2.77025371 5.05008503 5.47961542 7.0625 9 C8.50130559 11.50359806 9.85628239 13.82393759 11.68359375 16.0625 C13 18 13 18 13 22 C9.29800839 23.8509958 5.04132307 23.45849694 1 23 C-3.07295 20.38913461 -4.31636045 16.37746284 -6 12 C-5.34 12 -4.68 12 -4 12 C-4 12.66 -4 13.32 -4 14 C-3.01 14.33 -2.02 14.66 -1 15 C0.1875 17.5625 0.1875 17.5625 1 20 C3.64 20 6.28 20 9 20 C9 19.01 9 18.02 9 17 C8.34 17 7.68 17 7 17 C6.32332002 15.75539217 5.65905281 14.50403104 5 13.25 C4.62875 12.55390625 4.2575 11.8578125 3.875 11.140625 C3 9 3 9 3 5 C2.01 4.67 1.02 4.34 0 4 C0 2.68 0 1.36 0 0 Z " fill="#AF5D34" transform="translate(388,266)"/>
<path d="M0 0 C4.05664947 -0.0990914 8.1128277 -0.17157106 12.17041016 -0.21972656 C13.5497668 -0.23980642 14.92903869 -0.26707666 16.30810547 -0.30175781 C18.29356979 -0.35042817 20.27966254 -0.37086418 22.265625 -0.390625 C23.45961914 -0.41157227 24.65361328 -0.43251953 25.88378906 -0.45410156 C29.57462274 0.08373537 30.7103679 1.13548192 33 4 C32.67 4.66 32.34 5.32 32 6 C31.46890625 5.35546875 30.9378125 4.7109375 30.390625 4.046875 C27.39521524 1.48217775 25.64317797 1.41926861 21.75 1.25 C20.67234375 1.19328125 19.5946875 1.1365625 18.484375 1.078125 C17.66453125 1.05234375 16.8446875 1.0265625 16 1 C17.32 2.98 18.64 4.96 20 7 C19.67 7.66 19.34 8.32 19 9 C18.38125 8.195625 17.7625 7.39125 17.125 6.5625 C15.25835959 3.96125481 15.25835959 3.96125481 13 3 C12.66355469 3.98033203 12.66355469 3.98033203 12.3203125 4.98046875 C10.55517637 9.01730374 8.24105239 12.60435908 5.875 16.3125 C5.40707031 17.05306641 4.93914062 17.79363281 4.45703125 18.55664062 C3.30835804 20.37341968 2.15467631 22.18703037 1 24 C0.67 23.01 0.34 22.02 0 21 C0.33 20.34 0.66 19.68 1 19 C1.66 19 2.32 19 3 19 C3 17.68 3 16.36 3 15 C3.66 15 4.32 15 5 15 C5.33 12.69 5.66 10.38 6 8 C6.99 8 7.98 8 9 8 C9.33 6.68 9.66 5.36 10 4 C10.66 4 11.32 4 12 4 C12 3.01 12 2.02 12 1 C8.04 1 4.08 1 0 1 C0 0.67 0 0.34 0 0 Z " fill="#885F39" transform="translate(334,227)"/>
<path d="M0 0 C1.24501393 3.62354801 0.75974591 6.36668993 0.1015625 10.1015625 C-1.24830569 18.85188455 -1.44980946 27.53517717 -1.625 36.375 C-1.66330429 37.99741391 -1.70236254 39.6198102 -1.7421875 41.2421875 C-1.83678614 45.16131036 -1.92129059 49.08052718 -2 53 C-2.33 53 -2.66 53 -3 53 C-4.1157669 46.0201396 -4.25687569 39.13545969 -4.29516602 32.08691406 C-4.3066386 30.62294818 -4.32701522 29.15902256 -4.35668945 27.6953125 C-4.55942391 17.65599289 -3.64032595 9.48192274 0 0 Z " fill="#A6722A" transform="translate(242,179)"/>
<path d="M0 0 C1.30324219 -0.0309375 1.30324219 -0.0309375 2.6328125 -0.0625 C8.53805254 -0.09796691 12.84388515 0.86125158 18.25 3.25 C15.25 4.25 15.25 4.25 13.16796875 3.83203125 C3.42246702 1.88814938 -8.85852806 1.62622304 -17.77734375 6.27734375 C-20.07083806 7.4081954 -22.23679927 7.83477553 -24.75 8.25 C-22.62528271 5.93333005 -20.63372366 4.50041422 -17.8125 3.125 C-17.14347656 2.79242188 -16.47445313 2.45984375 -15.78515625 2.1171875 C-10.60261793 -0.09111098 -5.55007553 0.03236196 0 0 Z " fill="#AD7C39" transform="translate(283.75,152.75)"/>
<path d="M0 0 C0.84119973 2.39957614 1.11193544 3.64922558 0.328125 6.10546875 C-0.02765625 6.79253906 -0.3834375 7.47960937 -0.75 8.1875 C-1.09546875 8.88230469 -1.4409375 9.57710937 -1.796875 10.29296875 C-3 12 -3 12 -6 13 C-7.1552144 15.71138905 -7.1552144 15.71138905 -8 19 C-8.37461567 20.29177818 -8.74960953 21.58344676 -9.125 22.875 C-9.558125 24.421875 -9.558125 24.421875 -10 26 C-12.31 26.33 -14.62 26.66 -17 27 C-17.33 25.02 -17.66 23.04 -18 21 C-17.01 21.99 -16.02 22.98 -15 24 C-14.50371094 23.18917969 -14.00742187 22.37835938 -13.49609375 21.54296875 C-9.06383937 14.31847821 -4.57556395 7.13502004 0 0 Z " fill="#AE6F28" transform="translate(333,228)"/>
<path d="M0 0 C0.66 0 1.32 0 2 0 C2 11.88 2 23.76 2 36 C4.97 36 7.94 36 11 36 C11 33.69 11 31.38 11 29 C11.66 29.66 12.32 30.32 13 31 C12.75 34.0625 12.75 34.0625 12 37 C8.74696956 38.62651522 5.60774398 38.11453156 2 38 C-0.16884207 35.83115793 0.57599556 31.01965731 0.4375 28 C0.39431641 27.17371094 0.35113281 26.34742188 0.30664062 25.49609375 C0.06614491 20.61746636 -0.02204615 15.7755527 0.09448242 10.8918457 C0.092066 8.78888987 0.092066 8.78888987 -1.125 6.1875 C-2 4 -2 4 -1.125 1.6875 C-0.75375 1.130625 -0.3825 0.57375 0 0 Z " fill="#979496" transform="translate(226,251)"/>
<path d="M0 0 C1.27469407 2.54938815 1.12016184 4.33040998 1.11352539 7.18408203 C1.11341209 8.80553635 1.11341209 8.80553635 1.11329651 10.45974731 C1.10813522 11.63060883 1.10297394 12.80147034 1.09765625 14.0078125 C1.0962413 15.20356903 1.09482635 16.39932556 1.09336853 17.63131714 C1.08775663 21.46256987 1.07520208 25.29376484 1.0625 29.125 C1.05748653 31.71744707 1.05292336 34.30989506 1.04882812 36.90234375 C1.03778333 43.26824898 1.02103359 49.63412037 1 56 C2.670625 55.938125 2.670625 55.938125 4.375 55.875 C8 56 8 56 10 58 C8.35425434 58.02688151 6.70838587 58.04634123 5.0625 58.0625 C4.14597656 58.07410156 3.22945313 58.08570313 2.28515625 58.09765625 C0 58 0 58 -1 57 C-1.09887792 55.25617465 -1.12799032 53.50834457 -1.12939453 51.76171875 C-1.13254669 50.64385986 -1.13569885 49.52600098 -1.13894653 48.37426758 C-1.1369223 47.15763428 -1.13489807 45.94100098 -1.1328125 44.6875 C-1.13376923 43.44830811 -1.13472595 42.20911621 -1.13571167 40.93237305 C-1.13639374 38.30611719 -1.13503538 35.67995367 -1.13037109 33.05371094 C-1.12467381 29.68071286 -1.12795302 26.30779435 -1.13394356 22.93479919 C-1.1384177 19.72736323 -1.13528882 16.519937 -1.1328125 13.3125 C-1.13483673 12.0958667 -1.13686096 10.8792334 -1.13894653 9.62573242 C-1.13579437 8.50787354 -1.13264221 7.39001465 -1.12939453 6.23828125 C-1.12859894 5.24868408 -1.12780334 4.25908691 -1.12698364 3.23950195 C-1 1 -1 1 0 0 Z " fill="#BFBBBC" transform="translate(83,231)"/>
<path d="M0 0 C0.33 0 0.66 0 1 0 C1.88568763 7.04859736 1.64903804 11.97560086 -2.5625 17.875 C-6.01123671 22.1229092 -9.67243184 25.66416621 -14 29 C-14 27.02 -14 25.04 -14 23 C-12.35 23 -10.7 23 -9 23 C-9 21.35 -9 19.7 -9 18 C-7.68 18 -6.36 18 -5 18 C-5 16.68 -5 15.36 -5 14 C-4.34 13.67 -3.68 13.34 -3 13 C-2.34444881 10.47266765 -2.34444881 10.47266765 -2 8 C-1.67 8 -1.34 8 -1 8 C-0.67 5.36 -0.34 2.72 0 0 Z " fill="#B9612B" transform="translate(281,309)"/>
<path d="M0 0 C0.99 0.33 1.98 0.66 3 1 C2.5562709 4.31462972 2.09258925 7.62615881 1.625 10.9375 C1.49867188 11.88302734 1.37234375 12.82855469 1.2421875 13.80273438 C1.11328125 14.70185547 0.984375 15.60097656 0.8515625 16.52734375 C0.73635254 17.35999756 0.62114258 18.19265137 0.50244141 19.05053711 C0.33663574 19.69385986 0.17083008 20.33718262 0 21 C-0.66 21.33 -1.32 21.66 -2 22 C-3.53266582 18.93466836 -3.10276471 15.73245728 -3.0625 12.375 C-3.05798828 11.66859375 -3.05347656 10.9621875 -3.04882812 10.234375 C-3.03703875 8.48954725 -3.01910324 6.744763 -3 5 C-2.34 4.67 -1.68 4.34 -1 4 C-0.34786708 1.97536745 -0.34786708 1.97536745 0 0 Z " fill="#E6641C" transform="translate(250,251)"/>
<path d="M0 0 C2.7734375 1.62890625 2.7734375 1.62890625 5.375 3.5625 C6.68597656 4.52349609 6.68597656 4.52349609 8.0234375 5.50390625 C8.67570312 5.99761719 9.32796875 6.49132812 10 7 C7.62392051 7.83583327 6.45550373 8.1842383 4.078125 7.22265625 C2.38541667 6.1484375 0.69270833 5.07421875 -1 4 C-1 3.34 -1 2.68 -1 2 C-6.40787385 3.09786425 -6.40787385 3.09786425 -10 7 C-10.39013716 8.9896995 -10.73202649 10.99019869 -11 13 C-11.33 13 -11.66 13 -12 13 C-12.08121924 11.39667209 -12.13929134 9.79215974 -12.1875 8.1875 C-12.22230469 7.29417969 -12.25710937 6.40085937 -12.29296875 5.48046875 C-12 3 -12 3 -10.67578125 1.23828125 C-7.0076692 -1.4721885 -4.23167567 -1.05529381 0 0 Z " fill="#C7882E" transform="translate(251,285)"/>
<path d="M0 0 C0.33 0 0.66 0 1 0 C1 5.61 1 11.22 1 17 C2.98 17.33 4.96 17.66 7 18 C7.66 14.04 8.32 10.08 9 6 C9.33 6 9.66 6 10 6 C10 10.95 10 15.9 10 21 C6.7 21 3.4 21 0 21 C0 14.07 0 7.14 0 0 Z " fill="#DF6629" transform="translate(313,266)"/>
<path d="M0 0 C2.97 0.33 5.94 0.66 9 1 C9 1.33 9 1.66 9 2 C7.02 2 5.04 2 3 2 C2.67 4.64 2.34 7.28 2 10 C1.34 10 0.68 10 0 10 C-0.66 12.97 -1.32 15.94 -2 19 C-2.66 18.67 -3.32 18.34 -4 18 C-4.51137226 11.09647445 -2.86964374 6.25172386 0 0 Z " fill="#E57C28" transform="translate(258,225)"/>
<path d="M0 0 C-0.66537436 1.3339787 -1.33246088 2.66710325 -2 4 C-2.47695312 4.98355469 -2.95390625 5.96710938 -3.4453125 6.98046875 C-7.9142511 15.51302362 -7.9142511 15.51302362 -11.23828125 17.00390625 C-13.4375 17.25 -13.4375 17.25 -17 17 C-15 15 -15 15 -12 13 C-11.34 12.34 -10.68 11.68 -10 11 C-9.34 11.33 -8.68 11.66 -8 12 C-8.268125 11.13375 -8.53625 10.2675 -8.8125 9.375 C-9.01175192 5.78846545 -8.89440132 5.29084925 -6.8125 2.625 C-4 0 -4 0 0 0 Z " fill="#B9B9BA" transform="translate(224,257)"/>
<path d="M0 0 C7.39629499 3.32833275 14.22628568 7.60980947 18 15 C18.25 17.875 18.25 17.875 18 20 C17.67 18.68 17.34 17.36 17 16 C15.68 16 14.36 16 13 16 C12.7834375 14.63875 12.7834375 14.63875 12.5625 13.25 C10.76009184 9.50099104 10.19839572 9.40099742 6.5 8 C2.17361111 6.36111111 2.17361111 6.36111111 0.4375 2.75 C0.293125 1.8425 0.14875 0.935 0 0 Z " fill="#AD6D38" transform="translate(303,157)"/>
<path d="M0 0 C1.93719378 -0.05406122 3.87481921 -0.09282025 5.8125 -0.125 C6.89144531 -0.14820313 7.97039062 -0.17140625 9.08203125 -0.1953125 C12 0 12 0 15 2 C14.67 2.66 14.34 3.32 14 4 C12.02 3.34 10.04 2.68 8 2 C8 2.66 8 3.32 8 4 C7.01 4 6.02 4 5 4 C5.66 6.31 6.32 8.62 7 11 C7.66 11 8.32 11 9 11 C9.33 12.98 9.66 14.96 10 17 C4.81373354 12.77415325 2.0767164 6.2301492 0 0 Z " fill="#E0922E" transform="translate(350,228)"/>
<path d="M0 0 C2 1 2 1 3 3 C1.68 3.33 0.36 3.66 -1 4 C-1 4.99 -1 5.98 -1 7 C-1.66 7 -2.32 7 -3 7 C-3.433125 7.86625 -3.433125 7.86625 -3.875 8.75 C-4.24625 9.4925 -4.6175 10.235 -5 11 C-5.268125 11.721875 -5.53625 12.44375 -5.8125 13.1875 C-7 15 -7 15 -9.625 15.75 C-10.40875 15.8325 -11.1925 15.915 -12 16 C-12 16.66 -12 17.32 -12 18 C-12.66 17.67 -13.32 17.34 -14 17 C-9.83672082 10.71079102 -5.56522206 5.10850171 0 0 Z " fill="#C68B28" transform="translate(257,161)"/>
<path d="M0 0 C0.66 0 1.32 0 2 0 C3.60608528 4.63643488 5.14527228 9.15654293 6 14 C6.33 14.99 6.66 15.98 7 17 C6.34 17 5.68 17 5 17 C5.185625 17.928125 5.37125 18.85625 5.5625 19.8125 C6 23 6 23 5 26 C3.49300012 24.49300012 3.77626341 23.03718016 3.625 20.9375 C3.30777217 17.65081163 2.7217827 14.97636611 1.4375 11.9375 C-0.26988772 7.81821992 -0.23725284 4.42871959 0 0 Z " fill="#E47A20" transform="translate(240,224)"/>
<path d="M0 0 C0.66 0.33 1.32 0.66 2 1 C1 3 1 3 -0.83203125 5.26171875 C-3.71873491 8.90780752 -6.07278776 12.81606068 -8.51171875 16.76953125 C-9.00285156 17.50558594 -9.49398438 18.24164063 -10 19 C-10.33 19 -10.66 19 -11 19 C-11 16.69 -11 14.38 -11 12 C-9.68 12 -8.36 12 -7 12 C-7.33 9.36 -7.66 6.72 -8 4 C-6.68 4.33 -5.36 4.66 -4 5 C-3.8453125 4.0409375 -3.8453125 4.0409375 -3.6875 3.0625 C-3.460625 2.381875 -3.23375 1.70125 -3 1 C-2.01 0.67 -1.02 0.34 0 0 Z " fill="#BE5E22" transform="translate(376,268)"/>
<path d="M0 0 C3.30043213 4.9506482 4.25661606 9.05942526 4.65625 14.9140625 C4.90226499 17.29975905 4.90226499 17.29975905 7 20 C7.1953125 22.69921875 7.1953125 22.69921875 7.125 25.6875 C7.10695312 26.68136719 7.08890625 27.67523438 7.0703125 28.69921875 C7.03550781 29.83810547 7.03550781 29.83810547 7 31 C6.67 31 6.34 31 6 31 C5.96261719 30.30132812 5.92523438 29.60265625 5.88671875 28.8828125 C5.78810547 27.51769531 5.78810547 27.51769531 5.6875 26.125 C5.62949219 25.22007812 5.57148438 24.31515625 5.51171875 23.3828125 C5.2117961 20.63778399 5.2117961 20.63778399 2 19 C0.25608495 12.85433145 -0.28948253 6.36861577 0 0 Z " fill="#B4612B" transform="translate(240,232)"/>
<path d="M0 0 C0.77403168 0.00141495 1.54806335 0.0028299 2.34555054 0.00428772 C4.82155192 0.00989222 7.29746338 0.02244542 9.7734375 0.03515625 C11.45051953 0.04017067 13.12760297 0.04473368 14.8046875 0.04882812 C18.91930556 0.0598631 23.03385628 0.07713071 27.1484375 0.09765625 C27.1484375 0.42765625 27.1484375 0.75765625 27.1484375 1.09765625 C16.9184375 1.09765625 6.6884375 1.09765625 -3.8515625 1.09765625 C-4.1815625 2.08765625 -4.5115625 3.07765625 -4.8515625 4.09765625 C-6.5015625 3.76765625 -8.1515625 3.43765625 -9.8515625 3.09765625 C-9.8515625 3.75765625 -9.8515625 4.41765625 -9.8515625 5.09765625 C-10.5115625 5.09765625 -11.1715625 5.09765625 -11.8515625 5.09765625 C-9.21014085 -0.75120598 -5.92630498 -0.04049912 0 0 Z " fill="#ABA9AC" transform="translate(145.8515625,226.90234375)"/>
<path d="M0 0 C0.99 0.33 1.98 0.66 3 1 C2.01 1.495 2.01 1.495 1 2 C0.59270772 4.32156597 0.25561323 6.6568787 0 9 C-1.65 9.66 -3.3 10.32 -5 11 C-5.99 10.01 -6.98 9.02 -8 8 C-5.33333333 5.33333333 -2.66666667 2.66666667 0 0 Z " fill="#EB7B14" transform="translate(297,192)"/>
<path d="M0 0 C1.08403165 4.33612658 0.59232471 7.31678408 -0.3125 11.5625 C-0.44333984 12.23474609 -0.57417969 12.90699219 -0.70898438 13.59960938 C-1.39742403 16.94868539 -2.07918734 19.11878102 -4 22 C-4.99 21.67 -5.98 21.34 -7 21 C-4.69 14.07 -2.38 7.14 0 0 Z " fill="#B6612A" transform="translate(258,235)"/>
<path d="M0 0 C0.66 0 1.32 0 2 0 C2 0.66 2 1.32 2 2 C2.99 2.33 3.98 2.66 5 3 C7.95596704 7.69593426 9.57198641 12.42313253 9 18 C7.35 18.66 5.7 19.32 4 20 C4.33 19.443125 4.66 18.88625 5 18.3125 C6.18355869 15.57552054 6.27994957 13.96571577 6 11 C4.72683697 8.56264531 4.72683697 8.56264531 3 6.3125 C0 2.18055556 0 2.18055556 0 0 Z " fill="#B57834" transform="translate(360,245)"/>
<path d="M0 0 C0.33 1.32 0.66 2.64 1 4 C2.32 4 3.64 4 5 4 C5.36923077 9.53846154 5.36923077 9.53846154 3.5 11.875 C2.7575 12.431875 2.7575 12.431875 2 13 C0.68 12.34 -0.64 11.68 -2 11 C-1.855625 10.484375 -1.71125 9.96875 -1.5625 9.4375 C-0.84190099 6.31490429 -0.42733561 3.17449308 0 0 Z " fill="#CE7322" transform="translate(315,169)"/>
<path d="M0 0 C-0.495 0.61875 -0.99 1.2375 -1.5 1.875 C-3.19222773 3.83880904 -3.19222773 3.83880904 -3 6 C-8.625 8.125 -8.625 8.125 -12 7 C-10.75616297 3.26848892 -9.15652193 2.25465852 -6 0 C-3 -1 -3 -1 0 0 Z " fill="#ED9B17" transform="translate(267,160)"/>
<path d="M0 0 C4.06051787 1.35350596 4.64228453 3.27512664 6.75 6.9375 C7.38421875 8.01902344 8.0184375 9.10054687 8.671875 10.21484375 C9.11015625 11.13394531 9.5484375 12.05304688 10 13 C9.67 13.66 9.34 14.32 9 15 C7.62437146 13.71034824 6.29233607 12.37310707 5 11 C5 10.34 5 9.68 5 9 C4.01 8.67 3.02 8.34 2 8 C2 7.34 2 6.68 2 6 C1.01 6 0.02 6 -1 6 C-0.67 4.02 -0.34 2.04 0 0 Z " fill="#CA8031" transform="translate(365,232)"/>
<path d="M0 0 C-1.9761924 2.00301854 -3.95574474 4.00249867 -5.9375 6 C-6.50146484 6.57234375 -7.06542969 7.1446875 -7.64648438 7.734375 C-9.07878776 9.17525505 -10.53741129 10.58987143 -12 12 C-12.33 12 -12.66 12 -13 12 C-13 10.02 -13 8.04 -13 6 C-11.02 5.67 -9.04 5.34 -7 5 C-7 3.35 -7 1.7 -7 0 C-2.25 -1.125 -2.25 -1.125 0 0 Z " fill="#AF642B" transform="translate(297,202)"/>
<path d="M0 0 C1.9375 0.75 1.9375 0.75 4 2 C4.75 4.125 4.75 4.125 5 6 C5.66 6 6.32 6 7 6 C7.33 8.31 7.66 10.62 8 13 C8.66 13 9.32 13 10 13 C9.67 14.32 9.34 15.64 9 17 C7.68085608 14.92062051 6.36961787 12.83691981 5.0625 10.75 C4.68931641 10.16347656 4.31613281 9.57695312 3.93164062 8.97265625 C2.1034339 6.04093735 0.53724618 3.44519771 0 0 Z " fill="#B0702E" transform="translate(300,246)"/>
<path d="M0 0 C0.66 0 1.32 0 2 0 C0.56952311 5.10884605 -1.71389694 9.01744261 -4.625 13.375 C-5.04523438 14.01566406 -5.46546875 14.65632812 -5.8984375 15.31640625 C-6.92629768 16.88155698 -7.96231886 18.44134314 -9 20 C-9.33 19.01 -9.66 18.02 -10 17 C-9.67 16.34 -9.34 15.68 -9 15 C-8.34 15 -7.68 15 -7 15 C-7 13.68 -7 12.36 -7 11 C-6.34 11 -5.68 11 -5 11 C-4.67 8.69 -4.34 6.38 -4 4 C-3.01 4 -2.02 4 -1 4 C-0.67 2.68 -0.34 1.36 0 0 Z " fill="#A66E29" transform="translate(344,231)"/>
<path d="M0 0 C1.485 0.99 1.485 0.99 3 2 C2.67 2.99 2.34 3.98 2 5 C1.84730819 7.43780377 1.74317303 9.85283901 1.68359375 12.29296875 C1.66281265 12.99899734 1.64203156 13.70502594 1.62062073 14.43244934 C1.55532509 16.68403551 1.49633353 18.93573662 1.4375 21.1875 C1.39429575 22.7155066 1.35068084 24.24350164 1.30664062 25.77148438 C1.19966426 29.51420562 1.09834078 33.2570423 1 37 C0.67 37 0.34 37 0 37 C0 24.79 0 12.58 0 0 Z " fill="#7D7B7A" transform="translate(191,251)"/>
<path d="M0 0 C4.73041839 2.50433915 8.48825251 4.84975296 12 9 C12 9.99 12 10.98 12 12 C10.68 11.67 9.36 11.34 8 11 C8 9.68 8 8.36 8 7 C7.05125 6.71125 6.1025 6.4225 5.125 6.125 C2 5 2 5 0 3 C0 2.01 0 1.02 0 0 Z " fill="#B86B30" transform="translate(268,297)"/>
<path d="M0 0 C2.31 0 4.62 0 7 0 C6.59007812 0.47050781 6.18015625 0.94101562 5.7578125 1.42578125 C4.94957031 2.35970703 4.94957031 2.35970703 4.125 3.3125 C3.59132812 3.92738281 3.05765625 4.54226563 2.5078125 5.17578125 C0.8359553 7.13498212 0.8359553 7.13498212 -1 10 C-1.99 10 -2.98 10 -4 10 C-3.34 8.68 -2.68 7.36 -2 6 C-1.34 6 -0.68 6 0 6 C0 4.02 0 2.04 0 0 Z " fill="#BA5227" transform="translate(252,346)"/>
<path d="M0 0 C1.32 0.33 2.64 0.66 4 1 C3.278125 2.03125 2.55625 3.0625 1.8125 4.125 C0.64017876 5.99250314 0.64017876 5.99250314 0 8 C1.08293867 11.42011272 1.08293867 11.42011272 3 14 C0 14 0 14 -1.6875 12.8125 C-3.40364695 10.44258278 -3.23187108 8.85974334 -3 6 C-2.34 6 -1.68 6 -1 6 C-0.67 4.02 -0.34 2.04 0 0 Z " fill="#B66826" transform="translate(385,251)"/>
<path d="M0 0 C1.55136786 2.46393719 2.03039129 3.68089146 1.75 6.625 C1 9 1 9 -1 11 C-1.70710678 12.64991582 -2.37943989 14.31562256 -3 16 C-3.33 16 -3.66 16 -4 16 C-3.85795259 14.41632253 -3.71119847 12.83306682 -3.5625 11.25 C-3.48128906 10.36828125 -3.40007812 9.4865625 -3.31640625 8.578125 C-3.03761535 6.30649548 -2.61209423 4.20148177 -2 2 C-1.34 2 -0.68 2 0 2 C0 1.34 0 0.68 0 0 Z " fill="#E79B1D" transform="translate(245,177)"/>
<path d="M0 0 C0.99 0.33 1.98 0.66 3 1 C3.797837 7.69613196 4.12910853 14.25766581 4 21 C3.67 21 3.34 21 3 21 C2.49576443 18.25071558 1.99646574 15.50068857 1.5 12.75 C1.35691406 11.97269531 1.21382812 11.19539063 1.06640625 10.39453125 C0.93105469 9.64042969 0.79570312 8.88632812 0.65625 8.109375 C0.46772461 7.07248535 0.46772461 7.07248535 0.27539062 6.01464844 C0 4 0 4 0 0 Z " fill="#A05228" transform="translate(243,252)"/>
<path d="M0 0 C2.475 0.99 2.475 0.99 5 2 C4.04578192 3.14926266 3.08647955 4.29430541 2.125 5.4375 C1.59132813 6.07558594 1.05765625 6.71367187 0.5078125 7.37109375 C-1 9 -1 9 -3 10 C-3.66 9.67 -4.32 9.34 -5 9 C-5 8.34 -5 7.68 -5 7 C-3.68 7 -2.36 7 -1 7 C-1.66 5.35 -2.32 3.7 -3 2 C-2.34 2 -1.68 2 -1 2 C-0.67 1.34 -0.34 0.68 0 0 Z " fill="#C1571E" transform="translate(262,336)"/>
<path d="M0 0 C0 0.99 0 1.98 0 3 C-2.76452033 4.38226016 -5.0461363 4.09525387 -8.125 4.0625 C-9.22070312 4.05347656 -10.31640625 4.04445313 -11.4453125 4.03515625 C-12.70988281 4.01775391 -12.70988281 4.01775391 -14 4 C-14 3.34 -14 2.68 -14 2 C-12.04200486 1.66468585 -10.08359226 1.33180857 -8.125 1 C-6.48917969 0.7215625 -6.48917969 0.7215625 -4.8203125 0.4375 C-2 0 -2 0 0 0 Z " fill="#B06339" transform="translate(365,285)"/>
<path d="M0 0 C12.74618834 -0.92017937 12.74618834 -0.92017937 15.8203125 1.3359375 C16.875 3 16.875 3 18 6 C17.34 7.32 16.68 8.64 16 10 C13.70620251 6.55930376 13 5.27709699 13 1 C9.04 1 5.08 1 1 1 C0.67 1.66 0.34 2.32 0 3 C0 2.01 0 1.02 0 0 Z " fill="#8E5C2A" transform="translate(289,227)"/>
<path d="M0 0 C0 1.65 0 3.3 0 5 C-1.32 5.33 -2.64 5.66 -4 6 C-4.33 7.65 -4.66 9.3 -5 11 C-5.33 11 -5.66 11 -6 11 C-6 9.35 -6 7.7 -6 6 C-6.66 6 -7.32 6 -8 6 C-8 5.34 -8 4.68 -8 4 C-7.34 4 -6.68 4 -6 4 C-6 3.34 -6 2.68 -6 2 C-3 0 -3 0 0 0 Z " fill="#ED661B" transform="translate(272,327)"/>
<path d="M0 0 C1.32 0 2.64 0 4 0 C2.59928507 5.29158974 -0.85487245 7.77478044 -5 11 C-5 9.02 -5 7.04 -5 5 C-3.35 5 -1.7 5 0 5 C0 3.35 0 1.7 0 0 Z " fill="#AE4F27" transform="translate(272,327)"/>
<path d="M0 0 C0.99 0.33 1.98 0.66 3 1 C1.2633385 2.53604715 -0.48982755 4.05345163 -2.25 5.5625 C-3.22453125 6.40941406 -4.1990625 7.25632813 -5.203125 8.12890625 C-8 10 -8 10 -10.359375 9.77734375 C-10.90078125 9.52082031 -11.4421875 9.26429688 -12 9 C-11.34 8.34 -10.68 7.68 -10 7 C-9.01 7 -8.02 7 -7 7 C-7 6.01 -7 5.02 -7 4 C-4.69 3.34 -2.38 2.68 0 2 C0 1.34 0 0.68 0 0 Z " fill="#AE6328" transform="translate(279,216)"/>
<path d="M0 0 C0.99 0.33 1.98 0.66 3 1 C0.33333333 5 -2.33333333 9 -5 13 C-5 11.02 -5 9.04 -5 7 C-4.34 7 -3.68 7 -3 7 C-3 5.35 -3 3.7 -3 2 C-2.01 2 -1.02 2 0 2 C0 1.34 0 0.68 0 0 Z " fill="#C3772A" transform="translate(394,238)"/>
<path d="M0 0 C0.33 0 0.66 0 1 0 C1 2.31 1 4.62 1 7 C1.66 7.33 2.32 7.66 3 8 C1.02 8.99 -0.96 9.98 -3 11 C-3.32434322 6.35108046 -2.776422 3.77593392 0 0 Z " fill="#CE7024" transform="translate(363,265)"/>
<path d="M0 0 C0.66 0 1.32 0 2 0 C2 1.98 2 3.96 2 6 C-0.31 6.33 -2.62 6.66 -5 7 C-5.33 5.02 -5.66 3.04 -6 1 C-5.01 1.99 -4.02 2.98 -3 4 C-2.54625 3.34 -2.0925 2.68 -1.625 2 C-1.08875 1.34 -0.5525 0.68 0 0 Z " fill="#BF6922" transform="translate(321,248)"/>
<path d="M0 0 C1.98 0.99 3.96 1.98 6 3 C6 3.99 6 4.98 6 6 C7.32 6.66 8.64 7.32 10 8 C9.01 8.495 9.01 8.495 8 9 C5 7.9375 5 7.9375 2 6 C0.625 2.8125 0.625 2.8125 0 0 Z " fill="#C87D2E" transform="translate(303,157)"/>
<path d="M0 0 C0.99 0 1.98 0 3 0 C2.88637738 1.4800841 2.75877092 2.95910074 2.625 4.4375 C2.52058594 5.67306641 2.52058594 5.67306641 2.4140625 6.93359375 C2.27742187 7.61550781 2.14078125 8.29742187 2 9 C1.01 9.495 1.01 9.495 0 10 C-1.49106457 7.01787087 -1.11941467 4.28390342 -1 1 C-0.67 0.67 -0.34 0.34 0 0 Z " fill="#CF5D20" transform="translate(248,263)"/>
<path d="M0 0 C2.31 0.33 4.62 0.66 7 1 C7 1.99 7 2.98 7 4 C4.36 4 1.72 4 -1 4 C-0.67 2.68 -0.34 1.36 0 0 Z " fill="#EB651B" transform="translate(390,282)"/>
<path d="M0 0 C0.66 0 1.32 0 2 0 C2 0.66 2 1.32 2 2 C4.97 2.495 4.97 2.495 8 3 C8.33 4.65 8.66 6.3 9 8 C8.01 8 7.02 8 6 8 C6 7.34 6 6.68 6 6 C5.01 6 4.02 6 3 6 C2.01 4.02 1.02 2.04 0 0 Z " fill="#C86423" transform="translate(378,272)"/>
<path d="M0 0 C0.99 0.33 1.98 0.66 3 1 C2.835 1.763125 2.67 2.52625 2.5 3.3125 C1.90854604 6.03596236 1.90854604 6.03596236 2 9 C1.34 9 0.68 9 0 9 C0 8.34 0 7.68 0 7 C-0.66 7 -1.32 7 -2 7 C-2.33 5.68 -2.66 4.36 -3 3 C-2.01 3 -1.02 3 0 3 C0 2.01 0 1.02 0 0 Z " fill="#E8721E" transform="translate(380,265)"/>
<path d="M0 0 C-1.37154504 2.95409701 -2.98863724 5.44008376 -5 8 C-5.99 6.68 -6.98 5.36 -8 4 C-4.5 0 -4.5 0 0 0 Z " fill="#CBCAC9" transform="translate(224,257)"/>
<path d="M0 0 C0.99 0 1.98 0 3 0 C2.69381595 3.67420866 2.24228216 4.78135513 -0.5625 7.3125 C-1.366875 7.869375 -2.17125 8.42625 -3 9 C-2.67 6.69 -2.34 4.38 -2 2 C-1.34 2 -0.68 2 0 2 C0 1.34 0 0.68 0 0 Z " fill="#C66B22" transform="translate(300,192)"/>
<path d="M0 0 C0.33 0 0.66 0 1 0 C1.33 1.98 1.66 3.96 2 6 C4.31 6 6.62 6 9 6 C8.67 6.99 8.34 7.98 8 9 C5.66705225 9.04241723 3.33297433 9.04092937 1 9 C0 8 0 8 -0.09765625 6.15234375 C-0.06510417 4.1015625 -0.03255208 2.05078125 0 0 Z " fill="#D06437" transform="translate(239,349)"/>
<path d="M0 0 C0.66 0 1.32 0 2 0 C2 0.66 2 1.32 2 2 C2.99 2.33 3.98 2.66 5 3 C6.6875 6.0625 6.6875 6.0625 8 9 C7.01 9.33 6.02 9.66 5 10 C3.35 6.7 1.7 3.4 0 0 Z " fill="#A0522B" transform="translate(382,278)"/>
<path d="M0 0 C3.33511388 2.9901021 5.21521119 5.89498574 7 10 C7 10.66 7 11.32 7 12 C6.01 12 5.02 12 4 12 C3.87625 11.360625 3.7525 10.72125 3.625 10.0625 C3.41875 9.381875 3.2125 8.70125 3 8 C2.34 7.67 1.68 7.34 1 7 C0.59270772 4.67843403 0.25561323 2.3431213 0 0 Z " fill="#AE6C25" transform="translate(308,237)"/>
<path d="M0 0 C0.78375 0.04125 1.5675 0.0825 2.375 0.125 C2.045 1.775 1.715 3.425 1.375 5.125 C0.385 5.125 -0.605 5.125 -1.625 5.125 C-1.625 4.465 -1.625 3.805 -1.625 3.125 C-2.615 2.795 -3.605 2.465 -4.625 2.125 C-2.625 0.125 -2.625 0.125 0 0 Z " fill="#D8751E" transform="translate(281.625,210.875)"/>
<path d="M0 0 C0.66 0 1.32 0 2 0 C0.66654496 3.59007126 -0.8943231 6.79570907 -3 10 C-3.33 10 -3.66 10 -4 10 C-4 7.69 -4 5.38 -4 3 C-2.68 3 -1.36 3 0 3 C0 2.01 0 1.02 0 0 Z " fill="#AB5828" transform="translate(369,277)"/>
<path d="M0 0 C0.33 0.99 0.66 1.98 1 3 C0.01 4.485 0.01 4.485 -1 6 C0.65 5.67 2.3 5.34 4 5 C4 5.66 4 6.32 4 7 C1.69 7 -0.62 7 -3 7 C-2.625 4.0625 -2.625 4.0625 -2 1 C-1.34 0.67 -0.68 0.34 0 0 Z " fill="#E66C21" transform="translate(357,279)"/>
<path d="M0 0 C1 3 1 3 0.0625 5.1875 C-0.4634375 6.0846875 -0.4634375 6.0846875 -1 7 C-1.66 7 -2.32 7 -3 7 C-3 6.01 -3 5.02 -3 4 C-3.66 4 -4.32 4 -5 4 C-5 3.34 -5 2.68 -5 2 C-2 0 -2 0 0 0 Z " fill="#EB791D" transform="translate(369,263)"/>
<path d="M0 0 C1 3 1 3 0.00390625 5.26171875 C-0.47175781 6.06222656 -0.94742187 6.86273438 -1.4375 7.6875 C-2.14712891 8.89986328 -2.14712891 8.89986328 -2.87109375 10.13671875 C-3.24363281 10.75160156 -3.61617188 11.36648437 -4 12 C-4.66 12 -5.32 12 -6 12 C-4.43358249 7.69235185 -2.31663844 3.93828536 0 0 Z " fill="#8E5F2A" transform="translate(385,232)"/>
<path d="M0 0 C1.48280196 0.78483659 2.9611498 1.57809334 4.4375 2.375 C5.67306641 3.03628906 5.67306641 3.03628906 6.93359375 3.7109375 C9 5 9 5 10 7 C7.23723823 6.47731534 4.6739124 5.89130413 2 5 C2 4.01 2 3.02 2 2 C1.34 2 0.68 2 0 2 C0 1.34 0 0.68 0 0 Z " fill="#B9742D" transform="translate(251,286)"/>
<path d="M0 0 C0.66 0 1.32 0 2 0 C2 0.66 2 1.32 2 2 C2.969375 2.28875 3.93875 2.5775 4.9375 2.875 C8 4 8 4 9 6 C7.3125 6.8125 7.3125 6.8125 5 7 C2.25 4.6875 2.25 4.6875 0 2 C0 1.34 0 0.68 0 0 Z " fill="#ED8E19" transform="translate(248,287)"/>
<path d="M0 0 C4 1 4 1 5.8125 3.875 C7 7 7 7 6 10 C4.02 6.7 2.04 3.4 0 0 Z " fill="#A66C29" transform="translate(293,236)"/>
<path d="M0 0 C2.33944736 0.28730055 4.6739143 0.61936779 7 1 C7 1.33 7 1.66 7 2 C5.02 2 3.04 2 1 2 C0.67 4.64 0.34 7.28 0 10 C-0.33 10 -0.66 10 -1 10 C-1.02689216 8.52093108 -1.04634621 7.04172517 -1.0625 5.5625 C-1.07410156 4.73878906 -1.08570313 3.91507813 -1.09765625 3.06640625 C-1 1 -1 1 0 0 Z " fill="#9E5620" transform="translate(260,225)"/>
<path d="M0 0 C3.48331435 3.01887244 4.79157144 5.56909529 6 10 C5.01 9.67 4.02 9.34 3 9 C3 7.68 3 6.36 3 5 C2.01 4.67 1.02 4.34 0 4 C0 2.68 0 1.36 0 0 Z " fill="#A05129" transform="translate(388,266)"/>
<path d="M0 0 C1.485 0.99 1.485 0.99 3 2 C2.34 6.29 1.68 10.58 1 15 C0.67 15 0.34 15 0 15 C0 10.05 0 5.1 0 0 Z " fill="#B2AFAC" transform="translate(191,251)"/>
<path d="M0 0 C1.98 0.66 3.96 1.32 6 2 C6 3.32 6 4.64 6 6 C6.66 6.33 7.32 6.66 8 7 C6.68 7.33 5.36 7.66 4 8 C4 6.68 4 5.36 4 4 C2.08333079 1.74934898 2.08333079 1.74934898 0 0 Z " fill="#ED7320" transform="translate(270,302)"/>
<path d="M0 0 C0.66 0.33 1.32 0.66 2 1 C-0.6598561 4.44216672 -3.90288286 4.99504674 -8 6 C-8.33 5.01 -8.66 4.02 -9 3 C-7.88625 2.87625 -6.7725 2.7525 -5.625 2.625 C-1.96896323 2.3534187 -1.96896323 2.3534187 0 0 Z " fill="#3C1E18" transform="translate(248,356)"/>
<path d="M0 0 C1.98 0.99 3.96 1.98 6 3 C6 3.99 6 4.98 6 6 C3.5625 5.25 3.5625 5.25 1 4 C0.1875 1.875 0.1875 1.875 0 0 Z " fill="#AB6236" transform="translate(268,297)"/>
<path d="M0 0 C0.6875 1.6875 0.6875 1.6875 1 4 C-0.3125 6.75 -0.3125 6.75 -2 9 C-2.66 9 -3.32 9 -4 9 C-2.94124926 5.59687262 -1.99097846 2.98646769 0 0 Z " fill="#A66A2E" transform="translate(326,239)"/>
<path d="M0 0 C1.98 0 3.96 0 6 0 C5.67 0.99 5.34 1.98 5 3 C3.35 2.67 1.7 2.34 0 2 C0 2.66 0 3.32 0 4 C-0.66 4 -1.32 4 -2 4 C-1.34 2.68 -0.68 1.36 0 0 Z " fill="#CCCBCD" transform="translate(136,228)"/>
<path d="M0 0 C0.33 0 0.66 0 1 0 C1 1.98 1 3.96 1 6 C-0.65 6.66 -2.3 7.32 -4 8 C-2.68 5.36 -1.36 2.72 0 0 Z " fill="#A26328" transform="translate(368,257)"/>
<path d="M0 0 C0.99 0.33 1.98 0.66 3 1 C3 1.66 3 2.32 3 3 C3.66 3 4.32 3 5 3 C5.33 4.98 5.66 6.96 6 9 C2.91910327 6.22719294 1.31224548 3.93673644 0 0 Z " fill="#AB6F30" transform="translate(354,236)"/>
<path d="M0 0 C0.66 0 1.32 0 2 0 C3.7143618 1.95927063 5.38405168 3.95880212 7 6 C2.25 5.25 2.25 5.25 0 3 C0 2.01 0 1.02 0 0 Z " fill="#1E1D2D" transform="translate(249,372)"/>
<path d="M0 0 C0.75 1.75 0.75 1.75 1 4 C-0.9375 6.25 -0.9375 6.25 -3 8 C-2.45276317 4.62537285 -1.9451 2.91765 0 0 Z " fill="#B86037" transform="translate(359,272)"/>
<path d="M0 0 C0.33 0 0.66 0 1 0 C1.125 5.75 1.125 5.75 0 8 C-0.99 7.67 -1.98 7.34 -3 7 C-2.67 5.68 -2.34 4.36 -2 3 C-1.67 3.33 -1.34 3.66 -1 4 C-0.67 2.68 -0.34 1.36 0 0 Z " fill="#A96336" transform="translate(250,268)"/>
</svg>
