<?xml version="1.0" encoding="UTF-8"?><svg version="1.1" xmlns="http://www.w3.org/2000/svg" width="100" height="100"><path d="M0 0 C2.875 2 2.875 2 5 4 C3.62204407 7.19907357 2.09775167 8.914603 -0.5625 11.125 C-4.41312719 14.79188357 -4.84940519 17.86742968 -5.02734375 23.05859375 C-5.01832031 23.69925781 -5.00929688 24.33992188 -5 25 C-3.35 25 -1.7 25 0 25 C0 25.99 0 26.98 0 28 C-1.65 28.33 -3.3 28.66 -5 29 C-4.34 29.66 -3.68 30.32 -3 31 C-3.17805127 34.38297413 -3.78837244 35.76272061 -6.0625 38.3125 C-6.701875 38.869375 -7.34125 39.42625 -8 40 C-6.63629701 42.99220268 -5.05091917 45.29026529 -2.875 47.75 C-2.33617188 48.36359375 -1.79734375 48.9771875 -1.2421875 49.609375 C-0.62730469 50.29773438 -0.62730469 50.29773438 0 51 C-1.73828125 51.73828125 -1.73828125 51.73828125 -4 52 C-6.10546875 50.41796875 -6.10546875 50.41796875 -8.1875 48.1875 C-8.88230469 47.45917969 -9.57710937 46.73085937 -10.29296875 45.98046875 C-13.46084627 42.3051509 -13.10600038 39.66004229 -13.0625 34.875 C-13.05347656 33.59367187 -13.04445313 32.31234375 -13.03515625 30.9921875 C-13.02355469 30.00476563 -13.01195312 29.01734375 -13 28 C-13.66 28 -14.32 28 -15 28 C-15.33 27.01 -15.66 26.02 -16 25 C-17.32 25 -18.64 25 -20 25 C-20.33 25.99 -20.66 26.98 -21 28 C-21.99 28 -22.98 28 -24 28 C-24 23.71 -24 19.42 -24 15 C-20 16 -20 16 -18 19 C-17.54625 18.34 -17.0925 17.68 -16.625 17 C-16.08875 16.34 -15.5525 15.68 -15 15 C-14.34 15 -13.68 15 -13 15 C-13.061875 13.783125 -13.12375 12.56625 -13.1875 11.3125 C-13.18057781 7.4014614 -12.54740018 5.09327165 -10 2 C-6.79062591 -0.32402951 -3.88493979 -0.47570691 0 0 Z M-9 21 C-9.33 22.98 -9.66 24.96 -10 27 C-9.34 27 -8.68 27 -8 27 C-8 25.02 -8 23.04 -8 21 C-8.33 21 -8.66 21 -9 21 Z M-12 23 C-11 27 -11 27 -11 27 Z " fill="#E7871B" transform="translate(60,30)"/><path d="M0 0 C0.33 1.32 0.66 2.64 1 4 C1.66 4 2.32 4 3 4 C2.67 5.65 2.34 7.3 2 9 C3.175625 9.433125 3.175625 9.433125 4.375 9.875 C7 11 7 11 9 13 C8.82194873 16.38297413 8.21162756 17.76272061 5.9375 20.3125 C5.298125 20.869375 4.65875 21.42625 4 22 C5.36370299 24.99220268 6.94908083 27.29026529 9.125 29.75 C9.66382813 30.36359375 10.20265625 30.9771875 10.7578125 31.609375 C11.16773438 32.06828125 11.57765625 32.5271875 12 33 C10.26171875 33.73828125 10.26171875 33.73828125 8 34 C5.89453125 32.41796875 5.89453125 32.41796875 3.8125 30.1875 C2.77029297 29.09501953 2.77029297 29.09501953 1.70703125 27.98046875 C-1.38800568 24.38965931 -1.13480014 21.86706805 -1.125 17.1875 C-1.12757812 15.96417969 -1.13015625 14.74085937 -1.1328125 13.48046875 C-1.01906752 10.49968127 -0.64549051 7.89708341 0 5 C0.0370279 3.3337447 0.04759962 1.66598681 0 0 Z " fill="#DA781E" transform="translate(48,48)"/><path d="M0 0 C4.75 0.75 4.75 0.75 7 3 C7.66 2.01 8.32 1.02 9 0 C12.5 -0.3125 12.5 -0.3125 16 0 C16.66 0.66 17.32 1.32 18 2 C18.66 1.34 19.32 0.68 20 0 C21.32 0 22.64 0 24 0 C23.4740625 1.0828125 23.4740625 1.0828125 22.9375 2.1875 C21.55966427 6.32100718 22.65739827 8.9721948 24 13 C19.125 12.125 19.125 12.125 18 11 C17.67 11.66 17.34 12.32 17 13 C15.68 13 14.36 13 13 13 C13.37125 11.906875 13.7425 10.81375 14.125 9.6875 C14.558125 7.8621875 14.558125 7.8621875 15 6 C14.34 5.01 13.68 4.02 13 3 C10.08772731 6.28804981 8.50298788 8.59885603 8 13 C7.01 13 6.02 13 5 13 C4.731875 11.96875 4.46375 10.9375 4.1875 9.875 C3.19001103 6.3514958 1.7338102 3.23119173 0 0 Z " fill="#DE8323" transform="translate(57,45)"/><path d="M0 0 C4 1 4 1 6 4 C6.99 2.68 7.98 1.36 9 0 C9.99 0.33 10.98 0.66 12 1 C12 4.96 12 8.92 12 13 C11.01 13 10.02 13 9 13 C8.67 12.01 8.34 11.02 8 10 C6.68 10 5.36 10 4 10 C3.67 10.99 3.34 11.98 3 13 C2.01 13 1.02 13 0 13 C0 8.71 0 4.42 0 0 Z " fill="#EFEDED" transform="translate(36,45)"/><path d="M0 0 C3.0625 0.1875 3.0625 0.1875 5.0625 2.1875 C5.27122719 4.97052919 5.31890898 6.67468205 4.0625 9.1875 C4.46188767 11.28571215 4.46188767 11.28571215 5.0625 13.1875 C1.1875 12.3125 1.1875 12.3125 0.0625 11.1875 C-0.2675 11.8475 -0.5975 12.5075 -0.9375 13.1875 C-1.9275 13.1875 -2.9175 13.1875 -3.9375 13.1875 C-3.96436553 11.20840602 -3.98383375 9.22921029 -4 7.25 C-4.01160156 6.14785156 -4.02320313 5.04570313 -4.03515625 3.91015625 C-3.89929432 0.12232574 -3.80732768 0.24302092 0 0 Z M-0.9375 3.1875 C-0.9375 4.1775 -0.9375 5.1675 -0.9375 6.1875 C0.0525 5.8575 1.0425 5.5275 2.0625 5.1875 C1.7325 4.5275 1.4025 3.8675 1.0625 3.1875 C0.4025 3.1875 -0.2575 3.1875 -0.9375 3.1875 Z " fill="#F2F1F0" transform="translate(19.9375,44.8125)"/><path d="M0 0 C2.05078125 0.03255208 4.1015625 0.06510417 6.15234375 0.09765625 C6.15234375 1.08765625 6.15234375 2.07765625 6.15234375 3.09765625 C4.50234375 3.09765625 2.85234375 3.09765625 1.15234375 3.09765625 C1.15234375 3.75765625 1.15234375 4.41765625 1.15234375 5.09765625 C2.47234375 5.09765625 3.79234375 5.09765625 5.15234375 5.09765625 C5.15234375 6.08765625 5.15234375 7.07765625 5.15234375 8.09765625 C3.83234375 8.09765625 2.51234375 8.09765625 1.15234375 8.09765625 C1.15234375 8.75765625 1.15234375 9.41765625 1.15234375 10.09765625 C2.80234375 10.09765625 4.45234375 10.09765625 6.15234375 10.09765625 C6.15234375 11.08765625 6.15234375 12.07765625 6.15234375 13.09765625 C3.18234375 13.09765625 0.21234375 13.09765625 -2.84765625 13.09765625 C-2.87452178 11.11856227 -2.89399 9.13936654 -2.91015625 7.16015625 C-2.92175781 6.05800781 -2.93335937 4.95585938 -2.9453125 3.8203125 C-2.81361949 0.14871139 -2.81361949 0.14871139 0 0 Z " fill="#F3F1F1" transform="translate(28.84765625,44.90234375)"/><path d="M0 0 C4.75 0.75 4.75 0.75 7 3 C8.32 2.34 9.64 1.68 11 1 C11.33 1.99 11.66 2.98 12 4 C11.01439389 5.34400833 10.01241685 6.67607028 9 8 C8.28566879 10.64934822 8.28566879 10.64934822 8 13 C7.01 13 6.02 13 5 13 C4.731875 11.96875 4.46375 10.9375 4.1875 9.875 C3.19001103 6.3514958 1.7338102 3.23119173 0 0 Z " fill="#CA7220" transform="translate(57,45)"/><path d="M0 0 C0 3.3 0 6.6 0 10 C1.65 10 3.3 10 5 10 C5 10.99 5 11.98 5 13 C2.36 13 -0.28 13 -3 13 C-3 9.04 -3 5.08 -3 1 C-1 0 -1 0 0 0 Z " fill="#F5F4F3" transform="translate(55,45)"/><path d="M0 0 C4.13937592 3.30015998 7.58662205 6.17324411 10 11 C4.98558397 10.848048 2.66645254 8.07298671 -0.64453125 4.69140625 C-2 3 -2 3 -2 1 C-1.34 0.67 -0.68 0.34 0 0 Z " fill="#2C2B30" transform="translate(50,71)"/><path d="M0 0 C0.66 0 1.32 0 2 0 C2.33 0.99 2.66 1.98 3 3 C3.66 3.33 4.32 3.66 5 4 C5.33 3.34 5.66 2.68 6 2 C6.99 3.98 7.98 5.96 9 8 C4.125 7.125 4.125 7.125 3 6 C2.67 6.66 2.34 7.32 2 8 C0.68 8 -0.64 8 -2 8 C-1.505 6.2984375 -1.505 6.2984375 -1 4.5625 C0.04504273 1.45623361 0.04504273 1.45623361 0 0 Z " fill="#D96E29" transform="translate(72,50)"/><path d="M0 0 C2.05078125 0.03255208 4.1015625 0.06510417 6.15234375 0.09765625 C6.15234375 1.08765625 6.15234375 2.07765625 6.15234375 3.09765625 C4.50234375 3.09765625 2.85234375 3.09765625 1.15234375 3.09765625 C0.82234375 3.75765625 0.49234375 4.41765625 0.15234375 5.09765625 C-0.17765625 4.76765625 -0.50765625 4.43765625 -0.84765625 4.09765625 C-1.17765625 7.06765625 -1.50765625 10.03765625 -1.84765625 13.09765625 C-2.17765625 13.09765625 -2.50765625 13.09765625 -2.84765625 13.09765625 C-2.87452178 11.11856227 -2.89399 9.13936654 -2.91015625 7.16015625 C-2.92175781 6.05800781 -2.93335937 4.95585938 -2.9453125 3.8203125 C-2.81361949 0.14871139 -2.81361949 0.14871139 0 0 Z " fill="#ECEBEB" transform="translate(28.84765625,44.90234375)"/><path d="M0 0 C0.99 0.33 1.98 0.66 3 1 C3 4.96 3 8.92 3 13 C2.01 13 1.02 13 0 13 C-0.125 8.25 -0.125 8.25 1 6 C0.34 5.67 -0.32 5.34 -1 5 C-0.67 3.35 -0.34 1.7 0 0 Z " fill="#F6F5F3" transform="translate(45,45)"/><path d="M0 0 C0.66 0.66 1.32 1.32 2 2 C2.99 1.34 3.98 0.68 5 0 C5.99 0.33 6.98 0.66 8 1 C5.6875 3.5 5.6875 3.5 3 6 C2.01 6 1.02 6 0 6 C0 4.02 0 2.04 0 0 Z " fill="#D96224" transform="translate(47,66)"/><path d="M0 0 C0 1.32 0 2.64 0 4 C-2.64 4.99 -5.28 5.98 -8 7 C-8 6.34 -8 5.68 -8 5 C-2.52380952 0 -2.52380952 0 0 0 Z " fill="#EE6D1B" transform="translate(56,62)"/><path d="M0 0 C2.475 0.495 2.475 0.495 5 1 C5.33 2.98 5.66 4.96 6 7 C1.125 3.375 1.125 3.375 0 0 Z " fill="#D98022" transform="translate(57,45)"/><path d="M0 0 C0.33 0 0.66 0 1 0 C1 2.31 1 4.62 1 7 C0.01 7 -0.98 7 -2 7 C-2.125 4.625 -2.125 4.625 -2 2 C-1.34 1.34 -0.68 0.68 0 0 Z " fill="#E46922" transform="translate(64,51)"/></svg>
