<svg id="Layer_1" data-name="Layer 1" xmlns="http://www.w3.org/2000/svg" viewBox="0 0 107.09 108.33"><defs><style>.cls-1{fill:#231f20;}</style></defs><title>Logo30_Black</title><path class="cls-1" d="M34.43,53.76a17.75,17.75,0,0,1,3.2-4.36L48.45,38.58a17.76,17.76,0,0,1,25.12,0L84.39,49.4a17.75,17.75,0,0,1,3.2,4.36h27a54.17,54.17,0,0,0-107.09,0Z" transform="translate(-7.47 -7.8)"/><path class="cls-1" d="M87.59,70.17a17.75,17.75,0,0,1-3.2,4.36L73.57,85.34a17.76,17.76,0,0,1-25.12,0L37.63,74.52a17.75,17.75,0,0,1-3.2-4.36h-27a54.17,54.17,0,0,0,107.09,0Z" transform="translate(-7.47 -7.8)"/></svg>